<?xml version="1.0" encoding="iso-8859-1"?>
<!-- Generator: Adobe Illustrator 19.0.0, SVG Export Plug-In . SVG Version: 6.00 Build 0)  -->
<svg version="1.1" id="Layer_1" xmlns="http://www.w3.org/2000/svg" xmlns:xlink="http://www.w3.org/1999/xlink" x="0px" y="0px"
	 viewBox="0 0 490 490" style="enable-background:new 0 0 490 490;" xml:space="preserve">
<g>
	<g>
		<g>
			<rect x="345" y="165" style="fill:#685642;" width="100" height="290"/>
		</g>
		<g>
			<rect x="45" y="165" style="fill:#A58763;" width="300" height="290"/>
		</g>
	</g>
	<g>
		<g>
			<polygon style="fill:#685642;" points="445,165 480,260 390,260 345,165 			"/>
		</g>
		<g>
			<polygon style="fill:#685642;" points="345,165 310,255 10,255 45,165 			"/>
		</g>
	</g>
	<g id="XMLID_34_">
		<g>
			<g>
				<rect x="85" y="355" style="fill:#D7B740;" width="70" height="60"/>
			</g>
		</g>
		<g>
			<g>
				<path style="fill:#231F20;" d="M155,425H85c-5.523,0-10-4.477-10-10v-60c0-5.523,4.477-10,10-10h70c5.523,0,10,4.477,10,10v60
					C165,420.523,160.523,425,155,425z M95,405h50v-40H95V405z"/>
			</g>
		</g>
	</g>
	<g>
		<rect x="180" y="360" style="fill:#231F20;" width="45" height="20"/>
	</g>
	<g>
		<rect x="180" y="390" style="fill:#231F20;" width="115" height="20"/>
	</g>
	<g>
		<rect x="375" y="400" style="fill:#231F20;" width="40" height="20"/>
	</g>
	<g>
		<rect x="375" y="370" style="fill:#231F20;" width="40" height="20"/>
	</g>
	<g id="XMLID_30_">
		<g>
			<g>
				<polygon style="fill:#AFB6BB;" points="375,35 375,165 295,165 295,85 295,35 				"/>
			</g>
			<g>
				<rect x="115" y="85" style="fill:#546A79;" width="180" height="80"/>
			</g>
			<g>
				<rect x="115" y="35" style="fill:#E7ECED;" width="180" height="50"/>
			</g>
		</g>
		<g>
			<path style="fill:#231F20;" d="M489.383,256.543l-35-95C452.935,157.612,449.19,155,445,155h-60V35c0-5.523-4.477-10-10-10H115
				c-5.523,0-10,4.477-10,10v120H45c-4.124,0-7.825,2.532-9.32,6.376l-35,90c-1.197,3.077-0.798,6.546,1.066,9.27
				C3.61,263.371,6.699,265,10,265h25v190c0,5.523,4.477,10,10,10h400c5.523,0,10-4.477,10-10V270h25
				c3.269,0,6.332-1.598,8.203-4.28C490.073,263.038,490.514,259.611,489.383,256.543z M305,45h60v110h-20h-40V45z M285,45v30H125
				V45H285z M125,95h160v60H125V95z M24.619,245l27.222-70h278.54l-27.222,70H24.619z M55,265h255c4.124,0,7.825-2.532,9.32-6.375
				l15.68-40.32V445H55V265z M435,445h-80V209.471l25.962,54.81c1.655,3.493,5.173,5.719,9.038,5.719h45V445z M396.328,250
				l-35.526-75h77.225l27.631,75H396.328z"/>
			<g>
				<rect x="320" y="65" style="fill:#231F20;" width="30" height="20"/>
			</g>
		</g>
	</g>
	<g>
		<rect x="320" y="95" style="fill:#231F20;" width="30" height="20"/>
	</g>
</g>
<g>
</g>
<g>
</g>
<g>
</g>
<g>
</g>
<g>
</g>
<g>
</g>
<g>
</g>
<g>
</g>
<g>
</g>
<g>
</g>
<g>
</g>
<g>
</g>
<g>
</g>
<g>
</g>
<g>
</g>
</svg>
