<?xml version="1.0" encoding="UTF-8" standalone="no"?>
<!-- Generator: Adobe Illustrator 19.2.0, SVG Export Plug-In . SVG Version: 6.00 Build 0)  -->

<svg
   xmlns:dc="http://purl.org/dc/elements/1.1/"
   xmlns:cc="http://creativecommons.org/ns#"
   xmlns:rdf="http://www.w3.org/1999/02/22-rdf-syntax-ns#"
   xmlns:svg="http://www.w3.org/2000/svg"
   xmlns="http://www.w3.org/2000/svg"
   xmlns:sodipodi="http://sodipodi.sourceforge.net/DTD/sodipodi-0.dtd"
   xmlns:inkscape="http://www.inkscape.org/namespaces/inkscape"
   version="1.1"
   id="convertiblecar"
   x="0px"
   y="0px"
   viewBox="0 0 231.9998 118.1717"
   enable-background="new 0 0 231.9998 118.1717"
   xml:space="preserve"
   sodipodi:docname="car.svg"
   inkscape:version="0.92.3 (2405546, 2018-03-11)"><metadata
   id="metadata997"><rdf:RDF><cc:Work
       rdf:about=""><dc:format>image/svg+xml</dc:format><dc:type
         rdf:resource="http://purl.org/dc/dcmitype/StillImage" /></cc:Work></rdf:RDF></metadata><defs
   id="defs995" /><sodipodi:namedview
   pagecolor="#ffffff"
   bordercolor="#666666"
   borderopacity="1"
   objecttolerance="10"
   gridtolerance="10"
   guidetolerance="10"
   inkscape:pageopacity="0"
   inkscape:pageshadow="2"
   inkscape:window-width="1600"
   inkscape:window-height="867"
   id="namedview993"
   showgrid="false"
   inkscape:zoom="4.7715558"
   inkscape:cx="115.9999"
   inkscape:cy="59.08585"
   inkscape:window-x="0"
   inkscape:window-y="33"
   inkscape:window-maximized="1"
   inkscape:current-layer="g990" />
<g
   id="g990">
	<rect
   x="63.9998"
   y="22.1717"
   fill="#6FB9B3"
   width="8"
   height="12"
   id="rect970" />
	<path
   fill="#6FB9B3"
   d="M138.6483,1.1717c-1.5624-1.5623-4.0936-1.5623-5.6564,0c-1.5624,1.5625-1.5624,4.0937,0,5.6565   l27.344,27.3435h11.3124L138.6483,1.1717z"
   id="path972" />
	<path
   fill="#FE7D71"
   d="M231.9998,66.1717c0-17.6443-14.3476-32-31.9844-32h-28.3672h-11.3124h-88.336h-8H16.445   c-1.8748,0-3.498,1.3009-3.904,3.1329l-12.4456,56c-0.2636,1.1836,0.0256,2.422,0.7832,3.3711   c0.76,0.9453,1.9084,1.496,3.1212,1.496H20.361c-0.2204-1.3047-0.3612-2.6327-0.3612-4c0-13.2343,10.7656-24,24-24   s24,10.7657,24,24c0,1.3673-0.1408,2.6953-0.3612,4h88.7224c-0.2204-1.3047-0.3612-2.6327-0.3612-4c0-13.2343,10.7656-24,24-24   s24,10.7657,24,24c0,1.2853-0.1308,2.5393-0.326,3.7697C219.5914,96.0974,231.9998,82.5586,231.9998,66.1717z M34.5914,55.4842   L29.199,71.0117c-0.5428,1.5625-1.992,2.6289-3.6464,2.6837L11.359,74.1677c-0.0448,0.004-0.0896,0.004-0.1344,0.004   c-2.1488,0-3.924-1.7031-3.9964-3.8671c-0.074-2.2072,1.6564-4.0584,3.8652-4.1289l11.4492-0.3827l2.6468-7.6213H13.8806   c-2.2088,0-4-1.7891-4-4c0-2.2107,1.7912-4,4-4h16.9316c1.2952,0,2.51,0.6249,3.26,1.6797   C34.8223,52.9102,35.0154,54.2618,34.5914,55.4842z M147.9998,58.1717h-12c-2.2088,0-4-1.7891-4-4c0-2.2107,1.7912-4,4-4h12   c2.2088,0,4,1.7893,4,4C151.9998,56.3826,150.2086,58.1717,147.9998,58.1717z M202.7247,52.2578   c0.9004-2.0196,3.2656-2.9296,5.2812-2.0236l19.242,8.5704c2.0176,0.8984,2.926,3.2616,2.0272,5.2812   c-0.664,1.4884-2.1248,2.3712-3.656,2.3712c-0.5448,0-1.0956-0.1096-1.6252-0.3476l-19.242-8.5704   C202.7343,56.6406,201.8259,54.2774,202.7247,52.2578z"
   id="path974"
   style="fill:#f91602;fill-opacity:1" />
	<path
   fill="#4A8F9E"
   d="M179.9998,70.1717c-13.2344,0-24,10.7657-24,24c0,1.3673,0.1408,2.6953,0.3612,4   c1.914,11.332,11.7696,20,23.6388,20c11.9492,0,21.8576-8.7851,23.674-20.2303c0.1952-1.2304,0.326-2.4844,0.326-3.7697   C203.9998,80.9374,193.2343,70.1717,179.9998,70.1717z M179.9998,102.1717c-4.412,0-8-3.5899-8-8c0-4.4099,3.588-8,8-8   s8,3.5901,8,8C187.9998,98.5818,184.4118,102.1717,179.9998,102.1717z"
   id="path976" />
	<path
   fill="#4A8F9E"
   d="M43.9998,70.1717c-13.2344,0-24,10.7657-24,24c0,1.3673,0.1408,2.6953,0.3612,4   c1.914,11.332,11.7696,20,23.6388,20s21.7248-8.668,23.6388-20c0.2204-1.3047,0.3612-2.6327,0.3612-4   C67.9998,80.9374,57.2342,70.1717,43.9998,70.1717z M43.9998,102.1717c-4.412,0-8-3.5899-8-8c0-4.4099,3.588-8,8-8s8,3.5901,8,8   C51.9998,98.5818,48.4118,102.1717,43.9998,102.1717z"
   id="path978" />
	<path
   fill="#2F4556"
   d="M179.9998,86.1717c-4.412,0-8,3.5901-8,8c0,4.4101,3.588,8,8,8s8-3.5899,8-8   C187.9998,89.7618,184.4118,86.1717,179.9998,86.1717z"
   id="path980" />
	<path
   fill="#2F4556"
   d="M43.9998,86.1717c-4.412,0-8,3.5901-8,8c0,4.4101,3.588,8,8,8s8-3.5899,8-8   C51.9998,89.7618,48.4118,86.1717,43.9998,86.1717z"
   id="path982" />
	<path
   fill="#FCC24C"
   d="M225.619,66.457c1.5312,0,2.992-0.8828,3.656-2.3712c0.8988-2.0196-0.0096-4.3828-2.0272-5.2812   l-19.242-8.5704c-2.0156-0.906-4.3808,0.004-5.2812,2.0236c-0.8988,2.0196,0.0096,4.3828,2.0272,5.2812l19.242,8.5704   C224.5235,66.3474,225.0742,66.457,225.619,66.457z"
   id="path984" />
	<path
   fill="#FCC24C"
   d="M30.8122,50.1717H13.8806c-2.2088,0-4,1.7893-4,4c0,2.2109,1.7912,4,4,4h11.3088l-2.6468,7.6213   l-11.4492,0.3827c-2.2088,0.0705-3.9392,1.9217-3.8652,4.1289c0.0724,2.164,1.8476,3.8671,3.9964,3.8671   c0.0448,0,0.0896,0,0.1344-0.004l14.1936-0.4723c1.6544-0.0548,3.1036-1.1212,3.6464-2.6837l5.3924-15.5275   c0.424-1.2224,0.2308-2.574-0.5192-3.6328C33.3223,50.7966,32.1074,50.1717,30.8122,50.1717z"
   id="path986" />
	<path
   fill="#EB4548"
   d="M147.9998,50.1717h-12c-2.2088,0-4,1.7893-4,4c0,2.2109,1.7912,4,4,4h12c2.2088,0,4-1.7891,4-4   C151.9998,51.961,150.2086,50.1717,147.9998,50.1717z"
   id="path988" />
</g>
</svg>