<?xml version="1.0" encoding="UTF-8" standalone="no"?>
<svg
   xmlns:dc="http://purl.org/dc/elements/1.1/"
   xmlns:cc="http://creativecommons.org/ns#"
   xmlns:rdf="http://www.w3.org/1999/02/22-rdf-syntax-ns#"
   xmlns:svg="http://www.w3.org/2000/svg"
   xmlns="http://www.w3.org/2000/svg"
   xmlns:sodipodi="http://sodipodi.sourceforge.net/DTD/sodipodi-0.dtd"
   xmlns:inkscape="http://www.inkscape.org/namespaces/inkscape"
   width="192.90871"
   height="115.74743"
   viewBox="0 0 192.90871 115.74743"
   version="1.1"
   id="svg9279"
   sodipodi:docname="eye.svg"
   inkscape:version="0.92.3 (2405546, 2018-03-11)">
  <metadata
     id="metadata9285">
    <rdf:RDF>
      <cc:Work
         rdf:about="">
        <dc:format>image/svg+xml</dc:format>
        <dc:type
           rdf:resource="http://purl.org/dc/dcmitype/StillImage" />
        <dc:title>eye</dc:title>
      </cc:Work>
    </rdf:RDF>
  </metadata>
  <defs
     id="defs9283" />
  <sodipodi:namedview
     pagecolor="#ffffff"
     bordercolor="#666666"
     borderopacity="1"
     objecttolerance="10"
     gridtolerance="10"
     guidetolerance="10"
     inkscape:pageopacity="0"
     inkscape:pageshadow="2"
     inkscape:window-width="1600"
     inkscape:window-height="867"
     id="namedview9281"
     showgrid="false"
     fit-margin-top="0"
     fit-margin-left="0"
     fit-margin-right="0"
     fit-margin-bottom="0"
     inkscape:zoom="0.91666667"
     inkscape:cx="205.04404"
     inkscape:cy="163.66819"
     inkscape:window-x="0"
     inkscape:window-y="33"
     inkscape:window-maximized="1"
     inkscape:current-layer="svg9279" />
  <title
     id="title9275">eye</title>
  <path
     d="M 1.3774893,52.90622 C 20.909862,20.400484 56.868731,0 96.454354,0 136.03997,0 171.99884,20.400484 191.53122,52.90622 a 9.645619,9.645619 0 0 1 0,9.934988 c -19.53238,32.505733 -55.49125,52.906222 -95.076866,52.906222 -39.585623,0 -75.544492,-20.400489 -95.0768647,-52.906222 a 9.645619,9.645619 0 0 1 0,-9.934988 z M 96.454354,96.45619 c 30.721296,0 58.703236,-14.767438 75.322636,-38.582476 C 155.15759,34.05868 127.17565,19.291239 96.454354,19.291239 65.733056,19.291239 37.751115,34.05868 21.131707,57.873714 37.751115,81.688752 65.733056,96.45619 96.454354,96.45619 Z M 67.517495,57.873714 a 9.6456195,9.6456195 0 0 1 19.291239,0 9.645619,9.645619 0 1 0 9.64562,-9.645619 9.6456195,9.6456195 0 0 1 0,-19.291239 28.936856,28.936856 0 1 1 -28.936859,28.936858 z"
     id="path9277"
     inkscape:connector-curvature="0"
     style="fill:#000000;fill-rule:nonzero;stroke-width:9.64561939" />
</svg>
