<?xml version="1.0" encoding="UTF-8" standalone="no"?>
<!-- Generator: Adobe Illustrator 15.0.0, SVG Export Plug-In . SVG Version: 6.00 Build 0)  -->

<svg
   xmlns:dc="http://purl.org/dc/elements/1.1/"
   xmlns:cc="http://creativecommons.org/ns#"
   xmlns:rdf="http://www.w3.org/1999/02/22-rdf-syntax-ns#"
   xmlns:svg="http://www.w3.org/2000/svg"
   xmlns="http://www.w3.org/2000/svg"
   xmlns:sodipodi="http://sodipodi.sourceforge.net/DTD/sodipodi-0.dtd"
   xmlns:inkscape="http://www.inkscape.org/namespaces/inkscape"
   version="1.1"
   id="Слой_1"
   x="0px"
   y="0px"
   width="232.439px"
   height="232.439px"
   viewBox="0 0 232.439 232.439"
   enable-background="new 0 0 232.439 232.439"
   xml:space="preserve"
   sodipodi:docname="file.svg"
   inkscape:version="0.92.3 (2405546, 2018-03-11)"><metadata
   id="metadata1099"><rdf:RDF><cc:Work
       rdf:about=""><dc:format>image/svg+xml</dc:format><dc:type
         rdf:resource="http://purl.org/dc/dcmitype/StillImage" /></cc:Work></rdf:RDF></metadata><defs
   id="defs1097" /><sodipodi:namedview
   pagecolor="#ffffff"
   bordercolor="#666666"
   borderopacity="1"
   objecttolerance="10"
   gridtolerance="10"
   guidetolerance="10"
   inkscape:pageopacity="0"
   inkscape:pageshadow="2"
   inkscape:window-width="1600"
   inkscape:window-height="867"
   id="namedview1095"
   showgrid="false"
   inkscape:zoom="3.0287517"
   inkscape:cx="116.2195"
   inkscape:cy="114.08956"
   inkscape:window-x="0"
   inkscape:window-y="33"
   inkscape:window-maximized="1"
   inkscape:current-layer="g1090" />
<g
   id="g1092"
   style="fill:#ed1c24;fill-opacity:1">
	<g
   id="g1044"
   style="fill:#ed1c24;fill-opacity:1">
		
	</g>
	<g
   id="g1090"
   style="fill:#ed1c24;fill-opacity:1">
		<path
   d="M102.467,159.318    c-0.192-0.451-0.252-1.055,0.028-1.936c1.355-4.275,1.215-11.342-0.016-14.408c-1.061-2.639-4.31-6.219-5.199-7.166l0.012-0.011    l-0.243-0.243l-1.923-1.865l-0.236-0.236l-0.011,0.012c-0.978-0.87-4.647-4.01-7.315-5.006c-3.091-1.146-10.156-1.1-14.4,0.365    c-0.377,0.129-0.696,0.201-0.973,0.219L102.467,159.318z"
   id="path1046"
   style="fill:#b0b0b0;fill-opacity:1"
   stroke-linejoin="bevel"
   stroke-width="2"
   stroke="#FFFFFF"
   fill="#ED1C24" />
		<path
   d="M18.381,185.667c-0.982,4.291-0.766,10.375,0.354,13.166c1.058,2.637,4.312,6.217,5.199,7.166    l-0.011,0.011l0.241,0.241l1.926,1.867l0.234,0.235l0.013-0.012c0.976,0.87,4.645,4.009,7.312,5.005    c2.737,1.02,8.584,1.096,12.835,0.082c-5.353-2.902-11.109-6.905-16.351-12.146C25.13,196.279,21.255,190.801,18.381,185.667z"
   id="path1048"
   style="fill:#000000;fill-opacity:1"
   fill="#FFFFFF" />
		<path
   d="M60.38,135.542l-0.021,0.022c-7.044,6.995-10.595,13.244-12.796,20.874    c-2.248,7.807-23.657,21.16-23.657,21.16l-4.04,3.971c0.807,1.547,1.712,3.138,2.714,4.75c2.621,4.223,5.918,8.557,9.939,12.577    c4.033,4.034,8.373,7.337,12.601,9.964c1.637,1.023,3.262,1.943,4.84,2.768l3.952-4.023c0,0,13.354-21.41,21.162-23.658    c7.629-2.201,13.876-5.752,20.874-12.794l0.021-0.022c1.979-1.922,2.972-3.139,3.409-3.988c1.396-2.301-0.271-2.461-0.818-3.727    l-30.464-30.464c-1.267-0.548-1.426-2.215-3.729-0.819C63.52,132.569,62.3,133.564,60.38,135.542z"
   id="path1050"
   style="fill:#000000;fill-opacity:1"
   fill="#FFFFFF" />
		<g
   id="g1088"
   style="fill:#848484;fill-opacity:1">
			<polygon
   points="138.517,118.42 129.518,75.15 133.39,70.955 142.494,114.749    "
   id="polygon1052"
   style="fill:#848484;fill-opacity:1"
   fill="#FFFFFF" />
			<polygon
   points="145.634,111.852 136.443,67.648 140.314,63.454 149.615,108.181    "
   id="polygon1054"
   style="fill:#848484;fill-opacity:1"
   fill="#FFFFFF" />
			<polygon
   points="152.752,105.286 143.365,60.146 147.237,55.951 156.733,101.615    "
   id="polygon1056"
   style="fill:#848484;fill-opacity:1"
   fill="#FFFFFF" />
			<polygon
   points="131.397,124.988 122.594,82.652 126.465,78.457 135.378,121.314    "
   id="polygon1058"
   style="fill:#848484;fill-opacity:1"
   fill="#FFFFFF" />
			<polygon
   points="111.274,143.547 109.421,141.695 101.824,105.156 105.694,100.962 114.021,141.013    "
   id="polygon1060"
   style="fill:#848484;fill-opacity:1"
   fill="#FFFFFF" />
			<polygon
   points="159.871,98.721 150.29,52.644 154.161,48.449 163.851,95.05    "
   id="polygon1062"
   style="fill:#848484;fill-opacity:1"
   fill="#FFFFFF" />
			<polygon
   points="124.28,131.55 115.67,90.155 119.54,85.959 128.258,127.88    "
   id="polygon1064"
   style="fill:#848484;fill-opacity:1"
   fill="#FFFFFF" />
			<polygon
   points="117.16,138.117 108.746,97.655 112.618,93.46 121.139,134.448    "
   id="polygon1066"
   style="fill:#848484;fill-opacity:1"
   fill="#FFFFFF" />
			<polygon
   points="98.711,130.986 94.899,112.66 98.769,108.465 104.698,136.972    "
   id="polygon1068"
   style="fill:#848484;fill-opacity:1"
   fill="#FFFFFF" />
			<polygon
   points="209.7,52.757 203.439,22.644 209.426,28.631 213.679,49.087    "
   id="polygon1070"
   style="fill:#848484;fill-opacity:1"
   fill="#FFFFFF" />
			<polygon
   points="214.15,33.355 219.333,38.539 216.788,46.042    "
   id="polygon1072"
   style="fill:#848484;fill-opacity:1"
   fill="#FFFFFF" />
			<polygon
   points="202.581,59.323 192.784,12.202 192.943,12.148 198.715,17.921 206.562,55.654    "
   id="polygon1074"
   style="fill:#848484;fill-opacity:1"
   fill="#FFFFFF" />
			<polygon
   points="93.988,126.262 87.934,120.207 91.845,115.968    "
   id="polygon1076"
   style="fill:#848484;fill-opacity:1"
   fill="#FFFFFF" />
			<polygon
   points="195.462,65.892 184.909,15.134 185.209,14.808 189.292,13.404 199.444,62.219    "
   id="polygon1078"
   style="fill:#848484;fill-opacity:1"
   fill="#FFFFFF" />
			<polygon
   points="166.99,92.154 157.213,45.14 161.085,40.947 170.968,88.484    "
   id="polygon1080"
   style="fill:#848484;fill-opacity:1"
   fill="#FFFFFF" />
			<polygon
   points="174.108,85.588 164.138,37.638 168.009,33.447 178.087,81.918    "
   id="polygon1082"
   style="fill:#848484;fill-opacity:1"
   fill="#FFFFFF" />
			<polygon
   points="181.228,79.022 171.063,30.136 174.932,25.943 185.206,75.351    "
   id="polygon1084"
   style="fill:#848484;fill-opacity:1"
   fill="#FFFFFF" />
			<polygon
   points="188.347,72.454 177.986,22.636 181.857,18.441 192.325,68.784    "
   id="polygon1086"
   style="fill:#848484;fill-opacity:1"
   fill="#FFFFFF" />
		</g>
	<rect
   style="fill:#ff0000;fill-opacity:1;fill-rule:evenodd;stroke:none;stroke-width:4.00802755;stroke-miterlimit:4;stroke-dasharray:none;stroke-opacity:1;paint-order:stroke fill markers"
   id="rect1135-3"
   width="219.31207"
   height="6.7457666"
   x="53.752094"
   y="-7.8246493"
   transform="matrix(0.71006254,0.70413861,-0.71006254,0.70413861,0,0)"
   ry="0" /><ellipse
   style="fill:none;fill-opacity:1;fill-rule:evenodd;stroke:#ff0000;stroke-width:7.55905512;stroke-miterlimit:4;stroke-dasharray:none;stroke-opacity:1;paint-order:stroke fill markers"
   id="path1154"
   cx="118.36559"
   cy="113.57815"
   rx="109.12086"
   ry="108.95578" /></g>
</g>
</svg>