<?xml version="1.0" encoding="UTF-8" standalone="no"?>
<!-- Generator: Adobe Illustrator 22.0.1, SVG Export Plug-In . SVG Version: 6.00 Build 0)  -->

<svg
   xmlns:dc="http://purl.org/dc/elements/1.1/"
   xmlns:cc="http://creativecommons.org/ns#"
   xmlns:rdf="http://www.w3.org/1999/02/22-rdf-syntax-ns#"
   xmlns:svg="http://www.w3.org/2000/svg"
   xmlns="http://www.w3.org/2000/svg"
   xmlns:sodipodi="http://sodipodi.sourceforge.net/DTD/sodipodi-0.dtd"
   xmlns:inkscape="http://www.inkscape.org/namespaces/inkscape"
   version="1.1"
   id="Layer_1"
   x="0px"
   y="0px"
   viewBox="0 0 494.7 348.8"
   style="enable-background:new 0 0 494.7 348.8;"
   xml:space="preserve"
   sodipodi:docname="hardhat.svg"
   inkscape:version="0.92.3 (2405546, 2018-03-11)"><metadata
   id="metadata1292"><rdf:RDF><cc:Work
       rdf:about=""><dc:format>image/svg+xml</dc:format><dc:type
         rdf:resource="http://purl.org/dc/dcmitype/StillImage" /></cc:Work></rdf:RDF></metadata><defs
   id="defs1290" /><sodipodi:namedview
   pagecolor="#ffffff"
   bordercolor="#666666"
   borderopacity="1"
   objecttolerance="10"
   gridtolerance="10"
   guidetolerance="10"
   inkscape:pageopacity="0"
   inkscape:pageshadow="2"
   inkscape:window-width="1600"
   inkscape:window-height="867"
   id="namedview1288"
   showgrid="false"
   inkscape:zoom="2.0183487"
   inkscape:cx="247.35001"
   inkscape:cy="174.39999"
   inkscape:window-x="0"
   inkscape:window-y="33"
   inkscape:window-maximized="1"
   inkscape:current-layer="Layer_1" />
<style
   type="text/css"
   id="style1279">
	.st0{fill:#F8D509;}
</style>
<g
   id="g1285"
   style="fill:#ff6600">
	<path
   class="st0"
   d="M300,11.7c-75.3,27.2-116.1,125.4-112.2,271.5c0,1.3-0.5,2.5-1.4,3.5c-1,1-2.2,1.5-3.6,1.5l-0.4,0   c-22.8-1.6-42.3-5.1-57.9-10.4c-4.2-1.4-7.1-5.6-7.1-10.2c0.2-101,32.4-230.4,122.5-262.6c9.2-3.3,18.3-5,26.8-5   C280.1,0,291.6,4.1,300,11.7z"
   id="path1281"
   style="fill:#ff6600" />
	<path
   class="st0"
   d="M411.1,256.7c-9.9,9.7-29.8,17.3-41.7,21.8c-2.5,1-4.7,1.8-6.5,2.5c-17.3,7.1-43.6,19-58.5,26.5   c-9,4.6-19.6,11.7-27.3,16.9c-2.4,1.6-4.5,3-6.2,4.1c-40.1,26-99.1,26.9-180.5,2.6c-34.3-10.2-53.8-23.6-56.6-38.7   c-3.5-19,19.6-38.9,29.7-46.6c4.1-3.1,7-6.4,9.2-9.8c4,9.5,10.8,19.3,22.4,27.8c0-4.7,0.1-9.4,0.3-14.2c-14-13.4-16.7-29-17.3-40.9   c-0.1-3.8-0.1-2.4-0.1-7.9c0-86.4,32.2-133.7,59.2-158.2c19.6-17.8,44.3-29.7,71.4-34.7C134,55.9,106.4,173.6,106.2,267.5   c0,9.5,5.9,17.8,14.6,20.8c16.8,5.7,36.7,9.3,60.7,11c0.4,0,0.8,0,1.2,0c4.3,0,8.6-1.8,11.6-4.9c3-3.1,4.6-7.2,4.5-11.5   c-1.8-68.6,5.4-230.9,110.6-262.6c12.4,5.4,23.8,12.2,34.1,20.1c-42.4,32-68.1,93.3-74.4,178.3c-0.2,3.1,2.1,5.8,5.1,6   c0.1,0,0.3,0,0.4,0c2.9,0,5.3-2.2,5.6-5.2c4.3-58.3,20.4-134.8,72.2-171.8c1.5,1.4,3.1,2.7,4.5,4.2c39.5,38,57.7,95.1,47.5,149.2   c-8.5,45.4-64.2,72.1-161,77.1c-11.9,0.6-23.1,0.8-33.5,0.8c0.1,3.7,0.2,7.5,0.2,11.2c0.8,0,1.5,0,2.3,0c9.9,0,20.5-0.3,31.6-0.8   c129.5-6.7,164.7-50.6,171.4-86.2c1.2-6.4,2-12.9,2.5-19.3c8.5,9.7,13.1,19.8,13.5,30.3C432.1,233.2,419,249,411.1,256.7z"
   id="path1283"
   style="fill:#ff6600" />
</g>
</svg>