<?xml version="1.0" encoding="UTF-8" standalone="no"?>
<svg
   xmlns:dc="http://purl.org/dc/elements/1.1/"
   xmlns:cc="http://creativecommons.org/ns#"
   xmlns:rdf="http://www.w3.org/1999/02/22-rdf-syntax-ns#"
   xmlns:svg="http://www.w3.org/2000/svg"
   xmlns="http://www.w3.org/2000/svg"
   xmlns:sodipodi="http://sodipodi.sourceforge.net/DTD/sodipodi-0.dtd"
   xmlns:inkscape="http://www.inkscape.org/namespaces/inkscape"
   width="99.148285"
   height="99.148285"
   viewBox="0 0 99.148288 99.148288"
   version="1.1"
   id="svg7565"
   sodipodi:docname="hierarchy.svg"
   inkscape:version="0.92.3 (2405546, 2018-03-11)">
  <metadata
     id="metadata7571">
    <rdf:RDF>
      <cc:Work
         rdf:about="">
        <dc:format>image/svg+xml</dc:format>
        <dc:type
           rdf:resource="http://purl.org/dc/dcmitype/StillImage" />
        <dc:title>hierarchy-business-2</dc:title>
      </cc:Work>
    </rdf:RDF>
  </metadata>
  <defs
     id="defs7569" />
  <sodipodi:namedview
     pagecolor="#ffffff"
     bordercolor="#666666"
     borderopacity="1"
     objecttolerance="10"
     gridtolerance="10"
     guidetolerance="10"
     inkscape:pageopacity="0"
     inkscape:pageshadow="2"
     inkscape:window-width="1600"
     inkscape:window-height="867"
     id="namedview7567"
     showgrid="false"
     fit-margin-top="0"
     fit-margin-left="0"
     fit-margin-right="0"
     fit-margin-bottom="0"
     inkscape:zoom="2.5927249"
     inkscape:cx="-81.139169"
     inkscape:cy="-2.2646254"
     inkscape:window-x="0"
     inkscape:window-y="33"
     inkscape:window-maximized="1"
     inkscape:current-layer="svg7565" />
  <title
     id="title7513">hierarchy-business-2</title>
  <g
     id="Duotone"
     transform="scale(4.1311786)">
    <polygon
       points="3.5,14 5.5,15 5.5,17.5 3.5,18.5 1.5,17.5 1.5,15 "
       id="polygon7515"
       style="fill:#ffffff" />
    <polygon
       points="6.5,23.5 6.5,20.5 3.5,19.5 0.5,20.5 0.5,23.5 "
       id="polygon7517"
       style="fill:#ffffff" />
    <polygon
       points="19.5,14 21.5,15 21.5,17.5 19.5,18.5 17.5,17.5 17.5,15 "
       id="polygon7519"
       style="fill:#ffffff" />
    <polygon
       points="22.5,23.5 22.5,20.5 19.5,19.5 16.5,20.5 16.5,23.5 "
       id="polygon7521"
       style="fill:#ffffff" />
    <polygon
       points="11.5,1 13.5,2 13.5,4.5 11.5,5.5 9.5,4.5 9.5,2 "
       id="polygon7523"
       style="fill:#ffffff" />
    <polygon
       points="14.5,10.5 14.5,7.5 11.5,6.5 8.5,7.5 8.5,10.5 "
       id="polygon7525"
       style="fill:#ffffff" />
    <g
       id="g7531">
      <polygon
         points="19.5,14 19.5,18.5 21.5,17.5 21.5,15 "
         id="polygon7527"
         style="fill:#cce7ff" />
      <polygon
         points="22.5,20.5 19.5,19.5 19.5,23.5 22.5,23.5 "
         id="polygon7529"
         style="fill:#cce7ff" />
    </g>
    <g
       id="g7537">
      <polygon
         points="3.5,14 3.5,18.5 5.5,17.5 5.5,15 "
         id="polygon7533"
         style="fill:#cce7ff" />
      <polygon
         points="6.5,20.5 3.5,19.5 3.5,23.5 6.5,23.5 "
         id="polygon7535"
         style="fill:#cce7ff" />
    </g>
    <g
       id="g7543">
      <polygon
         points="11.5,1 11.5,5.5 13.5,4.5 13.5,2 "
         id="polygon7539"
         style="fill:#cce7ff" />
      <polygon
         points="14.5,7.5 11.5,6.5 11.5,10.5 14.5,10.5 "
         id="polygon7541"
         style="fill:#cce7ff" />
    </g>
    <polygon
       points="3.5,14 5.5,15 5.5,17.5 3.5,18.5 1.5,17.5 1.5,15 "
       id="polygon7545"
       style="fill:none;stroke:#1078ff;stroke-linecap:round;stroke-linejoin:round" />
    <polygon
       points="6.5,23.5 6.5,20.5 3.5,19.5 0.5,20.5 0.5,23.5 "
       id="polygon7547"
       style="fill:none;stroke:#1078ff;stroke-linecap:round;stroke-linejoin:round" />
    <line
       x1="11.5"
       y1="12.5"
       x2="11.5"
       y2="15.5"
       id="line7549"
       style="fill:none;stroke:#1078ff;stroke-linecap:round;stroke-linejoin:round" />
    <polyline
       points="9 17.5 11.5 15.5 14 17.5"
       id="polyline7551"
       style="fill:none;stroke:#1078ff;stroke-linecap:round;stroke-linejoin:round" />
    <polygon
       points="19.5,14 21.5,15 21.5,17.5 19.5,18.5 17.5,17.5 17.5,15 "
       id="polygon7553"
       style="fill:none;stroke:#1078ff;stroke-linecap:round;stroke-linejoin:round" />
    <polygon
       points="22.5,23.5 22.5,20.5 19.5,19.5 16.5,20.5 16.5,23.5 "
       id="polygon7555"
       style="fill:none;stroke:#1078ff;stroke-linecap:round;stroke-linejoin:round" />
    <polygon
       points="11.5,1 13.5,2 13.5,4.5 11.5,5.5 9.5,4.5 9.5,2 "
       id="polygon7557"
       style="fill:none;stroke:#1078ff;stroke-linecap:round;stroke-linejoin:round" />
    <polygon
       points="14.5,10.5 14.5,7.5 11.5,6.5 8.5,7.5 8.5,10.5 "
       id="polygon7559"
       style="fill:none;stroke:#1078ff;stroke-linecap:round;stroke-linejoin:round" />
  </g>
  <g
     id="Frames-24px"
     transform="scale(4.1311786)">
    <rect
       width="24"
       height="24"
       id="rect7562"
       x="0"
       y="0"
       style="fill:none" />
  </g>
</svg>
