<?xml version="1.0" encoding="UTF-8" standalone="no"?>
<!-- Generator: Adobe Illustrator 19.0.0, SVG Export Plug-In . SVG Version: 6.00 Build 0)  -->

<svg
   xmlns:dc="http://purl.org/dc/elements/1.1/"
   xmlns:cc="http://creativecommons.org/ns#"
   xmlns:rdf="http://www.w3.org/1999/02/22-rdf-syntax-ns#"
   xmlns:svg="http://www.w3.org/2000/svg"
   xmlns="http://www.w3.org/2000/svg"
   xmlns:sodipodi="http://sodipodi.sourceforge.net/DTD/sodipodi-0.dtd"
   xmlns:inkscape="http://www.inkscape.org/namespaces/inkscape"
   version="1.1"
   id="Capa_1"
   x="0px"
   y="0px"
   viewBox="0 0 60 60"
   style="enable-background:new 0 0 60 60;"
   xml:space="preserve"
   sodipodi:docname="house.svg"
   inkscape:version="0.92.3 (2405546, 2018-03-11)"><metadata
   id="metadata6956"><rdf:RDF><cc:Work
       rdf:about=""><dc:format>image/svg+xml</dc:format><dc:type
         rdf:resource="http://purl.org/dc/dcmitype/StillImage" /><dc:title></dc:title></cc:Work></rdf:RDF></metadata><defs
   id="defs6954" /><sodipodi:namedview
   pagecolor="#ffffff"
   bordercolor="#666666"
   borderopacity="1"
   objecttolerance="10"
   gridtolerance="10"
   guidetolerance="10"
   inkscape:pageopacity="0"
   inkscape:pageshadow="2"
   inkscape:window-width="1600"
   inkscape:window-height="867"
   id="namedview6952"
   showgrid="false"
   inkscape:zoom="11.733333"
   inkscape:cx="30"
   inkscape:cy="30"
   inkscape:window-x="0"
   inkscape:window-y="33"
   inkscape:window-maximized="1"
   inkscape:current-layer="Capa_1" />
<path
   style="fill:#B02721;"
   d="M53.792,28.028L30,9.688L6.208,28.028c-1.228,0.946-2.974,0.801-4.028-0.335l0,0  c-1.195-1.287-1.033-3.32,0.35-4.402l25.43-19.895L30,1.5l2.041,1.896l25.43,19.895c1.383,1.082,1.545,3.115,0.35,4.402l0,0  C56.766,28.829,55.02,28.974,53.792,28.028z"
   id="path6895" />
<path
   style="fill:#B02721;"
   d="M53.792,28.028L30,9.688L6.208,28.028c-1.228,0.946-2.974,0.801-4.028-0.335l0,0  c-1.195-1.287-1.033-3.32,0.35-4.402l25.43-19.895L30,1.5l2.041,1.896l25.43,19.895c1.383,1.082,1.545,3.115,0.35,4.402l0,0  C56.766,28.829,55.02,28.974,53.792,28.028z"
   id="path6897" />
<polygon
   style="fill:#56bce5;fill-opacity:1"
   points="30,9.688 7,27.417 7,27.5 7,57.5 53,57.5 53,27.5 53,27.417 "
   id="polygon6899" />
<g
   id="g6905">
	<path
   style="fill:#E0E1E2;"
   d="M59,47.5c-0.553,0-1,0.448-1,1v1h-1v-1c0-0.552-0.447-1-1-1s-1,0.448-1,1v1h-2c-0.553,0-1,0.448-1,1   s0.447,1,1,1h2v3h-2c-0.553,0-1,0.448-1,1s0.447,1,1,1h2v1c0,0.552,0.447,1,1,1s1-0.448,1-1v-1h1v1c0,0.552,0.447,1,1,1   s1-0.448,1-1v-9C60,47.948,59.553,47.5,59,47.5z M57,54.5v-3h1v3H57z"
   id="path6901" />
	<path
   style="fill:#E0E1E2;"
   d="M7,51.5c0.553,0,1-0.448,1-1s-0.447-1-1-1H5v-1c0-0.552-0.447-1-1-1s-1,0.448-1,1v1H2v-1   c0-0.552-0.447-1-1-1s-1,0.448-1,1v9c0,0.552,0.447,1,1,1s1-0.448,1-1v-1h1v1c0,0.552,0.447,1,1,1s1-0.448,1-1v-1h2   c0.553,0,1-0.448,1-1s-0.447-1-1-1H5v-3H7z M3,54.5H2v-3h1V54.5z"
   id="path6903" />
</g>
<rect
   x="15"
   y="26.5"
   style="fill:#556080;"
   width="12"
   height="8"
   id="rect6907" />
<rect
   x="15"
   y="40.5"
   style="fill:#556080;"
   width="12"
   height="10"
   id="rect6909" />
<rect
   x="33"
   y="26.5"
   style="fill:#556080;"
   width="12"
   height="8"
   id="rect6911" />
<rect
   x="33"
   y="40.5"
   style="fill:#556080;"
   width="12"
   height="17"
   id="rect6913" />
<rect
   x="33"
   y="26.5"
   style="fill:#7383BF;"
   width="12"
   height="6"
   id="rect6915" />
<rect
   x="15"
   y="26.5"
   style="fill:#7383BF;"
   width="12"
   height="2.765"
   id="rect6917" />
<polygon
   style="fill:#7383BF;"
   points="22,44.5 22,40.5 20,40.5 20,44.5 15,44.5 15,46.5 20,46.5 20,50.5 22,50.5 22,46.5 27,46.5   27,44.5 "
   id="polygon6919" />
<g
   id="g6921">
</g>
<g
   id="g6923">
</g>
<g
   id="g6925">
</g>
<g
   id="g6927">
</g>
<g
   id="g6929">
</g>
<g
   id="g6931">
</g>
<g
   id="g6933">
</g>
<g
   id="g6935">
</g>
<g
   id="g6937">
</g>
<g
   id="g6939">
</g>
<g
   id="g6941">
</g>
<g
   id="g6943">
</g>
<g
   id="g6945">
</g>
<g
   id="g6947">
</g>
<g
   id="g6949">
</g>
</svg>