<?xml version="1.0" encoding="UTF-8" standalone="no"?>
<!-- Generator: Adobe Illustrator 19.0.0, SVG Export Plug-In . SVG Version: 6.00 Build 0)  -->

<svg
   xmlns:dc="http://purl.org/dc/elements/1.1/"
   xmlns:cc="http://creativecommons.org/ns#"
   xmlns:rdf="http://www.w3.org/1999/02/22-rdf-syntax-ns#"
   xmlns:svg="http://www.w3.org/2000/svg"
   xmlns="http://www.w3.org/2000/svg"
   xmlns:sodipodi="http://sodipodi.sourceforge.net/DTD/sodipodi-0.dtd"
   xmlns:inkscape="http://www.inkscape.org/namespaces/inkscape"
   version="1.1"
   id="Capa_1"
   x="0px"
   y="0px"
   viewBox="0 0 512.003 512.003"
   style="enable-background:new 0 0 512.003 512.003;"
   xml:space="preserve"
   sodipodi:docname="lang.svg"
   inkscape:version="0.92.3 (2405546, 2018-03-11)"><metadata
   id="metadata8937"><rdf:RDF><cc:Work
       rdf:about=""><dc:format>image/svg+xml</dc:format><dc:type
         rdf:resource="http://purl.org/dc/dcmitype/StillImage" /><dc:title></dc:title></cc:Work></rdf:RDF></metadata><defs
   id="defs8935" /><sodipodi:namedview
   pagecolor="#ffffff"
   bordercolor="#666666"
   borderopacity="1"
   objecttolerance="10"
   gridtolerance="10"
   guidetolerance="10"
   inkscape:pageopacity="0"
   inkscape:pageshadow="2"
   inkscape:window-width="1600"
   inkscape:window-height="867"
   id="namedview8933"
   showgrid="false"
   inkscape:zoom="1.374992"
   inkscape:cx="256.0015"
   inkscape:cy="256.0015"
   inkscape:window-x="0"
   inkscape:window-y="33"
   inkscape:window-maximized="1"
   inkscape:current-layer="g8886" />
<g
   id="g8900">
	<g
   id="g8886">
		<circle
   style="fill:#ffce2b;fill-opacity:1"
   cx="256.001"
   cy="256.001"
   r="248.5"
   id="circle8880" />
		<path
   style="fill:#f10f21;fill-opacity:1"
   d="M377.383,322.075l-11.8-11.799l-3.843,2.225c-21.269,30.946-55.761,52.013-95.329,55.2    l-1.339,0.775l32.954,32.954c21.913,21.913,57.442,21.913,79.355,0v0C399.296,379.517,399.296,343.989,377.383,322.075z"
   id="path8882" />
		<path
   style="fill:#FFD164;"
   d="M292.074,468.429c-137.243,0-248.5-111.258-248.5-248.5c0-59.433,20.891-113.971,55.695-156.733    C43.285,108.761,7.501,178.191,7.501,256.001c0,137.242,111.257,248.5,248.5,248.5c77.81,0,147.242-35.784,192.806-91.769    C406.046,447.537,351.507,468.429,292.074,468.429z"
   id="path8884" />
	</g>
	<g
   id="g8898">
		<path
   d="M15.109,248.714c1.833-61.604,26.857-119.543,70.459-163.146c43.603-43.603,101.543-68.626,163.146-70.459    c61.335-1.827,120.402,19.43,166.328,59.851c3.109,2.737,7.848,2.435,10.585-0.675c2.737-3.109,2.435-7.848-0.675-10.585    C376.162,20.758,313.418-1.823,248.268,0.115c-65.44,1.948-126.989,28.529-173.306,74.846    C28.644,121.279,2.063,182.827,0.115,248.268C-1.824,313.415,20.757,376.162,63.7,424.952c1.482,1.685,3.552,2.545,5.633,2.545    c1.76,0,3.527-0.616,4.952-1.87c3.109-2.737,3.412-7.476,0.675-10.585C34.538,369.116,13.283,310.047,15.109,248.714z"
   id="path8888" />
		<path
   d="M448.302,87.051c-2.736-3.109-7.476-3.412-10.585-0.675c-3.109,2.737-3.412,7.476-0.675,10.585    c40.421,45.925,61.677,104.995,59.852,166.327c-1.833,61.603-26.856,119.543-70.459,163.146    c-43.603,43.603-101.542,68.626-163.146,70.459c-61.329,1.832-120.402-19.43-166.328-59.851    c-3.108-2.736-7.848-2.435-10.585,0.675c-2.737,3.109-2.435,7.848,0.675,10.585c46.854,41.239,106.58,63.7,168.942,63.7    c2.576,0,5.158-0.039,7.742-0.116c65.441-1.948,126.989-28.529,173.306-74.846c46.318-46.317,72.899-107.865,74.847-173.306    C513.826,198.588,491.245,135.84,448.302,87.051z"
   id="path8890" />
		<path
   d="M318.024,212.626c6.76-8.41,16.317-13.233,26.223-13.233s19.463,4.823,26.223,13.233c1.482,1.844,3.656,2.802,5.851,2.802    c1.648,0,3.309-0.541,4.694-1.655c3.229-2.595,3.742-7.316,1.147-10.544c-9.622-11.97-23.44-18.835-37.914-18.835    s-28.292,6.865-37.914,18.835c-2.595,3.229-2.082,7.949,1.147,10.544C310.708,216.369,315.428,215.855,318.024,212.626z"
   id="path8892" />
		<path
   d="M141.62,212.626c6.76-8.41,16.317-13.233,26.223-13.233s19.463,4.823,26.222,13.233c2.594,3.229,7.315,3.742,10.544,1.147    c3.229-2.595,3.742-7.316,1.147-10.544c-9.621-11.97-23.44-18.836-37.914-18.836c-14.473,0-28.292,6.865-37.914,18.835    c-2.595,3.229-2.082,7.949,1.147,10.544c1.385,1.114,3.045,1.655,4.694,1.655C137.964,215.428,140.138,214.47,141.62,212.626z"
   id="path8894" />
		<path
   d="M182.768,354.548c21.894,13.883,47.228,21.221,73.262,21.221c1.869,0,3.732-0.049,5.592-0.124l31.135,31.135    c12.403,12.403,28.694,18.604,44.986,18.604c16.292,0,32.583-6.201,44.986-18.604c24.805-24.805,24.805-65.166,0-89.971    l-8.559-8.559c1.697-2.867,3.3-5.796,4.791-8.792c1.846-3.708,0.336-8.21-3.373-10.056c-3.707-1.845-8.21-0.336-10.056,3.372    c-20.875,41.941-62.834,67.996-109.502,67.996s-88.626-26.054-109.502-67.996c-1.846-3.708-6.348-5.218-10.056-3.372    s-5.218,6.348-3.373,10.056C144.326,322.013,161.502,341.063,182.768,354.548z M365.659,320.951l6.464,6.464    c18.957,18.957,18.956,49.802,0,68.758c-9.183,9.183-21.392,14.24-34.379,14.24s-25.196-5.057-34.379-14.24l-22.642-22.643    c14.969-2.73,29.379-7.95,42.677-15.474l14.71,14.71c1.464,1.465,3.384,2.197,5.303,2.197s3.839-0.732,5.303-2.197    c2.929-2.929,2.929-7.678,0-10.606l-12.394-12.394C347.51,341.664,357.388,331.943,365.659,320.951z"
   id="path8896" />
	</g>
</g>
<g
   id="g8902">
</g>
<g
   id="g8904">
</g>
<g
   id="g8906">
</g>
<g
   id="g8908">
</g>
<g
   id="g8910">
</g>
<g
   id="g8912">
</g>
<g
   id="g8914">
</g>
<g
   id="g8916">
</g>
<g
   id="g8918">
</g>
<g
   id="g8920">
</g>
<g
   id="g8922">
</g>
<g
   id="g8924">
</g>
<g
   id="g8926">
</g>
<g
   id="g8928">
</g>
<g
   id="g8930">
</g>
</svg>