<?xml version="1.0" encoding="utf-8"?>
<!-- Svg Vector Icons : http://www.onlinewebfonts.com/icon -->
<!DOCTYPE svg PUBLIC "-//W3C//DTD SVG 1.1//EN" "http://www.w3.org/Graphics/SVG/1.1/DTD/svg11.dtd">
<svg version="1.1" xmlns="http://www.w3.org/2000/svg" xmlns:xlink="http://www.w3.org/1999/xlink" x="0px" y="0px" viewBox="0 0 1000 1000" enable-background="new 0 0 1000 1000" xml:space="preserve">
<metadata> Svg Vector Icons : http://www.onlinewebfonts.com/icon </metadata>
<g><g transform="translate(0.000000,511.000000) scale(0.100000,-0.100000)"><path d="M7836.5,4946.8c-29.6-35.6-98.8-118.5-154.1-181.8c-55.3-63.2-110.6-146.2-124.5-181.8c-17.8-47.4-35.6-67.2-67.2-67.2c-59.3,0-197.6-51.4-264.8-98.8c-29.6-21.7-73.1-39.5-92.9-39.5c-21.7,0-98.8-31.6-175.8-69.2c-75.1-37.5-150.2-69.2-168-69.2c-15.8,0-75.1-21.7-128.4-49.4c-53.3-27.7-106.7-49.4-118.5-49.4c-11.8,0-41.5-21.7-67.2-49.4c-25.7-27.7-112.6-71.1-199.6-98.8c-84.9-29.6-160-61.3-165.9-71.1c-7.9-9.9-59.3-17.8-116.6-17.8c-73.1,0-120.5-11.9-152.1-37.5c-43.5-33.6-55.3-33.6-96.8-9.9c-63.2,33.6-217.3,37.5-217.3,3.9c0-35.6-379.4-31.6-484.1,2c-106.7,35.6-116.6,49.4-83,102.7c17.8,29.6,35.6,124.5,43.5,245c9.9,171.9,7.9,209.4-25.7,288.5c-23.7,51.4-69.2,112.6-106.7,138.3c-55.3,41.5-86.9,47.4-233.1,47.4c-148.2,0-179.8-5.9-262.8-55.3c-205.5-120.5-264.8-349.7-166-646.1c25.7-81,53.4-179.8,61.3-219.3c11.9-69.2,9.9-73.1-55.3-85c-83-15.8-418.9-179.8-592.7-288.5c-164-102.7-209.4-160-209.4-260.8c0-43.5-7.9-94.8-19.8-114.6c-9.9-19.8-39.5-158.1-67.2-308.2c-37.5-223.3-69.2-326-160-551.2c-138.3-337.9-258.8-687.6-296.4-859.5c-13.8-71.1-45.4-171.9-67.2-225.2c-67.2-154.1-49.4-316.1,45.4-428.8c65.2-75.1,65.2-130.4,2-179.8c-86.9-67.2-65.2-144.2,71.1-245c142.3-104.7,189.7-90.9,256.9,67.2c27.7,69.2,61.3,134.3,71.1,144.2c33.6,33.6,47.4-187.7,49.4-705.4l2-466.3l45.4-19.8c43.5-19.7,47.4-33.6,47.4-169.9c0-83,13.8-357.6,31.6-612.5c29.6-416.9,29.6-466.3,2-492c-33.6-33.6-264.8-71.1-665.8-104.7c-136.3-11.9-308.2-33.6-385.3-45.4l-138.3-23.7l-23.7-108.7c-11.9-59.3-23.7-132.4-23.7-160c-2-53.4-41.5-77.1-132.4-77.1c-23.7,0-49.4-13.8-55.3-31.6c-5.9-17.8-47.4-333.9-90.9-705.4c-53.3-446.5-90.9-689.6-110.6-719.2c-23.7-37.5-45.4-45.4-136.3-45.4h-108.7v-63.2c0-35.6-11.9-144.2-27.7-243c-15.8-98.8-33.6-233.1-41.5-300.3l-13.8-124.5h2521.1c2003.5,0,2525.1,5.9,2531,25.7c5.9,11.9,2,152.1-9.9,310.2s-29.6,424.8-39.5,592.8c-27.6,486-39.5,573-79,612.5c-88.9,88.9-177.8,248.9-177.8,318.1c0,41.5-15.8,92.9-37.5,120.5c-21.7,25.7-209.4,189.7-420.9,363.5c-209.4,171.9-432.7,363.6-494,424.8c-152.1,146.2-150.1,104.7-7.9,936.5c29.6,164,57.3,326,63.2,363.6l9.9,65.2l134.3-11.9c106.7-11.9,193.6-2,442.6,47.4c531.5,104.7,768.6,201.5,966.2,401.1c114.6,112.6,114.6,112.6,114.6,233.1c0,250.9-73.1,523.6-375.4,1400.8c-156.1,456.4-213.4,592.7-444.6,1057.1c-146.2,294.4-270.7,553.2-276.6,575c-9.9,37.5,0,45.4,92.9,67.2c193.6,45.4,598.7,181.8,727.1,247c71.1,35.6,191.7,110.6,266.7,167.9c77.1,57.3,169.9,118.5,207.5,138.3c37.6,19.8,126.5,79,197.6,130.4c71.1,53.3,146.2,104.7,167.9,116.6c23.7,11.9,55.3,67.2,75.1,128.4c19.8,59.3,43.5,116.6,51.4,124.5c7.9,7.9,138.3,45.4,286.5,83c268.7,67.2,401.1,124.5,474.2,205.5c21.7,23.7,51.4,41.5,67.2,41.5c23.7,0,25.7,17.8,15.8,83c-7.9,45.4-23.7,90.9-37.5,98.8c-13.8,7.9-160.1,15.8-324,15.8c-166,0-302.3,7.9-302.3,15.8c0,7.9,21.7,45.5,49.4,83c59.3,81,69.2,217.3,17.8,217.3C7907.6,5010,7868,4980.4,7836.5,4946.8z M4459.8-1235.5c0-430.7-19.8-543.3-96.8-576.9c-81-33.6-120.5-75.1-120.5-126.5c0-35.5-9.9-45.4-49.4-45.4c-47.4,0-49.4,5.9-49.4,106.7c0,59.3,13.8,179.8,29.6,266.7c17.8,88.9,39.5,284.5,47.4,434.7c7.9,150.2,21.7,282.5,29.6,294.4c7.9,13.8,57.3,23.7,112.6,23.7h96.8V-1235.5z"/></g></g>
</svg>