<svg xmlns="http://www.w3.org/2000/svg" viewBox="0 0 147.34 130.06">
	<defs>
		<style>.cls-1{fill:#f6d446;}.cls-2{fill:none;}.cls-3{fill:#ed6e35;}.cls-4{fill:#f9ae4c;}.cls-5{fill:#65318e;}.cls-6{fill:#f9bc16;}.cls-7{fill:#f9a33d;}.cls-8{fill:#f49231;}.cls-9{fill:#f2f2f2;}</style>
	</defs>
	<circle class="cls-1" cx="28.67" cy="10.24" r="7.28"/>
	<path class="cls-2" d="M78.44,59.79V49C78.27,52.46,78.31,56.08,78.44,59.79Z"/>
	<path class="cls-2" d="M123.66,43.83Q121.37,38,118.94,32.4c-0.82,2.29-1.66,4.54-2.52,6.78l0,0.11c-4.44,11.59-9.25,22.8-12.73,35.35H135l-0.61-1.74-0.08-.21c-3.4-9.64-6.83-19.26-10.52-28.62Z"/>
	<path class="cls-2" d="M32.4,43.6q-2.29-5.79-4.72-11.43C26.86,34.46,26,36.71,25.16,39l0,0.11c-4.44,11.59-9.25,22.8-12.73,35.35H43.7l-0.62-1.74L43,72.46c-3.4-9.64-6.83-19.26-10.52-28.62Z"/>
	<path class="cls-3" d="M119.25,3.42a7.26,7.26,0,0,0-5.66,2.71c-5.52-1.71-10.16-5.27-16.71-6C90-.64,85.89,2.35,82.53,3.2a2.37,2.37,0,0,0-1.06.89A10.88,10.88,0,0,1,84,9.36c7.31-7,19.92-3.2,28,1.84A7.28,7.28,0,1,0,119.25,3.42Z"/>
	<path class="cls-1" d="M29.13,16.88c1.84-.19,3.07-2.94,5.1-4.37,7.89-5.57,21.67-11,28.32-3.25A10.87,10.87,0,0,1,65.08,4.1C52.21-7,36.58,9.1,24,6.68,19.72,12.36,24.24,17.38,29.13,16.88Z"/>
	<path class="cls-3" d="M56.08,74.42H49.53L48.27,70.9l-0.08-.22L43,72.46l0.08,0.21,0.62,1.74H37.33L5.64,85.32l0.14,0.14a27.49,27.49,0,0,0,12.39,6.75l0.7,0.18a37.72,37.72,0,0,0,8.68,1h0.53C40.92,93.31,53.77,86.89,56.08,74.42Z"/>
	<path class="cls-1" d="M27.68,32.17Q30.12,37.8,32.4,43.6l7.83,5c-3.47-9.36-7.09-18.57-11.09-27.39H27A152.8,152.8,0,0,0,20.3,35.83L25.16,39C26,36.71,26.86,34.46,27.68,32.17Z"/>
	<path class="cls-4" d="M12.38,74.42c3.48-12.55,8.3-23.76,12.73-35.35l0-.11L20.3,35.83l0,0.1C15.21,48.52,11.07,62,5.83,74.42H0A20.15,20.15,0,0,0,5.64,85.32L37.33,74.42H12.38Z"/>
	<path class="cls-4" d="M32.49,43.84c3.69,9.36,7.12,19,10.52,28.62l5.18-1.78c-2.6-7.27-5.19-14.56-7.86-21.77l-0.1-.28-7.83-5Z"/>
	<path class="cls-1" d="M140.79,74.64l-1.26-3.52-0.08-.22-5.18,1.78,0.08,0.21L135,74.64h-6.37L96.9,85.55,97,85.69a27.49,27.49,0,0,0,12.39,6.75l0.7,0.18a37.7,37.7,0,0,0,8.68,1h0.53c12.85-.11,25.7-6.53,28-19h-6.55Z"/>
	<path class="cls-3" d="M118.94,32.4q2.44,5.63,4.72,11.43l7.83,5C128,39.51,124.4,30.3,120.39,21.47h-2.19a152.89,152.89,0,0,0-6.65,14.59l4.86,3.12C117.27,36.94,118.12,34.69,118.94,32.4Z"/>
	<path class="cls-4" d="M103.64,74.64c3.48-12.55,8.3-23.76,12.73-35.35l0-.11-4.86-3.12,0,0.1c-5,12.59-9.19,26.09-14.43,38.49H91.26A20.16,20.16,0,0,0,96.9,85.55l31.69-10.91H103.64Z"/>
	<path class="cls-4" d="M123.75,44.07c3.69,9.36,7.12,19,10.52,28.62l5.18-1.78c-2.6-7.27-5.19-14.56-7.86-21.77l-0.1-.28-7.83-5Z"/>
	<polygon points="78.44 74.84 67.74 66.88 67.74 66.88 78.44 74.85 78.44 74.84"/>
	<path class="cls-1" d="M65.85,30.22L80,38c1.43-3.52,4.23-5.93,4.44-9.44H70.38l-4.53,1.54v0.15Z"/>
	<path class="cls-5" d="M65.85,30.07l4.53-1.54h-4.5l0,1.44v0.1Z"/>
	<path class="cls-1" d="M78.44,59.79c-0.13-3.71-.16-7.33,0-10.77V48.93h0a65.85,65.85,0,0,1,1-8.75A11.07,11.07,0,0,1,80,38.1L80,38l-14.2-7.75v0.16l-0.08,4.91a7.26,7.26,0,0,1,2,3.44v26.4l10.7,0.27V59.79Z"/>
	<path class="cls-6" d="M78.44,65.4l-10.7-.27h0v1.75l10.7,8V65.4Z"/>
	<path class="cls-7" d="M78.44,74.85l-10.7-8V98.22l10.7,1.28V74.85Z"/>
	<path class="cls-6" d="M65.85,30.22V30l0-1.44H63.37c-0.56,3.52.87,5,2.26,6.61l0.14,0.15,0.08-4.91V30.22Z"/>
	<path class="cls-8" d="M84,9.36a10.88,10.88,0,1,0,.18,1.95A10.88,10.88,0,0,0,84,9.36Z"/>
	<polygon class="cls-9" points="79.33 75.5 78.44 74.84 78.44 74.85 79.33 75.51 79.33 75.5"/>
	<path class="cls-6" d="M78.44,49s0-.06,0-0.08h0V49Z"/>
	<path class="cls-7" d="M79.84,98.49a9.16,9.16,0,0,0-12.79,0L41.44,123.67c-1.9,1.87-1.92,3.56-.44,4.72l46.29-22.53Z"/>
	<path class="cls-6" d="M99,130.06c7,0,9.92-2.83,6.4-6.3l-18.1-17.9L41,128.39c1.26,1,3.6,1.59,6.82,1.59Z"/>
	<path class="cls-4" d="M86,31.18a2.82,2.82,0,0,1-2.75,2.88H63.89a2.82,2.82,0,0,1-2.75-2.88h0a2.82,2.82,0,0,1,2.75-2.88H83.27A2.82,2.82,0,0,1,86,31.18h0Z"/>
</svg>
