<?xml version="1.0" encoding="iso-8859-1"?>
<!-- Generator: Adobe Illustrator 19.0.0, SVG Export Plug-In . SVG Version: 6.00 Build 0)  -->
<svg version="1.1" id="Layer_1" xmlns="http://www.w3.org/2000/svg" xmlns:xlink="http://www.w3.org/1999/xlink" x="0px" y="0px"
	 viewBox="0 0 338.954 338.954" style="enable-background:new 0 0 338.954 338.954;" xml:space="preserve">
<g>
	<path style="fill:#28D2E4;" d="M7.501,48.467v242.029h323.952L7.501,48.467z M81.94,176.482l58.536,43.732H81.94V176.482z"/>
	<g>
		<path style="fill:#22313F;" d="M335.942,284.488L11.989,42.459C7.049,38.769,0,42.306,0,48.467v242.029c0,4.143,3.358,7.5,7.5,7.5
			h323.953C338.655,297.996,341.699,288.789,335.942,284.488z M206.97,282.996v-43.935c0-4.143-3.357-7.5-7.5-7.5
			s-7.5,3.357-7.5,7.5v43.935h-19.532v-28.5c0-4.143-3.357-7.5-7.5-7.5s-7.5,3.357-7.5,7.5v28.5h-19.533v-28.5
			c0-4.143-3.357-7.5-7.5-7.5c-4.142,0-7.5,3.357-7.5,7.5v28.5h-19.532v-28.5c0-4.143-3.357-7.5-7.5-7.5s-7.5,3.357-7.5,7.5v28.5
			H68.839v-43.935c0-4.143-3.357-7.5-7.5-7.5s-7.5,3.357-7.5,7.5v43.935H15V63.433l293.884,219.563H206.97z"/>
		<path style="fill:#22313F;" d="M81.939,227.714h58.536c7.187,0,10.257-9.197,4.489-13.509l-58.536-43.732
			c-4.937-3.684-11.989-0.159-11.989,6.009v43.732C74.439,224.357,77.797,227.714,81.939,227.714z M89.439,191.446l28.466,21.268
			H89.439V191.446z"/>
	</g>
</g>
<g>
</g>
<g>
</g>
<g>
</g>
<g>
</g>
<g>
</g>
<g>
</g>
<g>
</g>
<g>
</g>
<g>
</g>
<g>
</g>
<g>
</g>
<g>
</g>
<g>
</g>
<g>
</g>
<g>
</g>
</svg>
