<?xml version="1.0" encoding="iso-8859-1"?>
<!-- Generator: Adobe Illustrator 19.0.0, SVG Export Plug-In . SVG Version: 6.00 Build 0)  -->
<svg version="1.1" id="Layer_1" xmlns="http://www.w3.org/2000/svg" xmlns:xlink="http://www.w3.org/1999/xlink" x="0px" y="0px"
	 viewBox="0 0 496 496" style="enable-background:new 0 0 496 496;" xml:space="preserve">
<path style="fill:#8EA5A4;" d="M496,476.8c0,10.4-8.8,19.2-19.2,19.2H19.2C8.8,496,0,487.2,0,476.8V19.2C0,8.8,8.8,0,19.2,0h457.6
	C487.2,0,496,8.8,496,19.2V476.8z"/>
<path style="fill:#FDFFFF;" d="M16,80v381.6C16,472,23.2,480,32.8,480h430.4c9.6,0,16.8-8,16.8-18.4V80H16z"/>
<path style="fill:#E8EFEF;" d="M463.2,480c9.6,0,16.8-8.8,16.8-18.4V80H16"/>
<rect x="16" y="80" style="fill:#DCE5E5;" width="464" height="24"/>
<path style="fill:#FDFFFF;" d="M395.2,40c0,9.6-8,16-17.6,16H32c-9.6,0-8-6.4-8-16l0,0c0-9.6-1.6-16,8-16h345.6
	C387.2,24,395.2,30.4,395.2,40L395.2,40z"/>
<path style="fill:#E6EFEF;" d="M24,40.8L24,40.8c0-9.6-1.6-16.8,8-16.8h345.6c9.6,0,17.6,7.2,17.6,16.8l0,0"/>
<circle style="opacity:0.4;fill:#B1BCBC;enable-background:new    ;" cx="426.4" cy="41.6" r="8.8"/>
<circle style="fill:#FFFFFF;" cx="426.4" cy="37.6" r="8.8"/>
<path style="fill:#E8EFEE;" d="M420,31.2c3.2-3.2,9.6-3.2,12.8,0c3.2,3.2,3.2,9.6,0,12.8"/>
<circle style="opacity:0.4;fill:#B1BCBC;enable-background:new    ;" cx="462.4" cy="41.6" r="8.8"/>
<circle style="fill:#FFFFFF;" cx="462.4" cy="37.6" r="8.8"/>
<path style="fill:#E8EFEE;" d="M456,31.2c3.2-3.2,9.6-3.2,12.8,0c3.2,3.2,3.2,9.6,0,12.8"/>
<path style="fill:#8EA5A4;" d="M100.8,32l-0.8-0.8h-2.4c-0.8,0-0.8,0-0.8,0.8l-1.6,6.4l0,0l0,0L92.8,32c-0.8,0-0.8,0-1.6,0h-2.4
	C88,32,88,32,88,32.8L85.6,40l0,0l0,0L84,33.6c0-1.6,0-1.6-0.8-1.6h-2.4H80h-0.8h-2.4C76,32,76,32,76,32.8l-1.6,6.4l0,0l0,0L72,32.8
	c0-0.8-0.8-0.8-1.6-0.8h-1.6c-0.8,0-0.8,0-1.6,0.8l-1.6,6.4l0,0l0,0l-2.4-6.4c0-0.8,0-0.8-0.8-0.8H60h-0.8c0,0,0,0-0.8,0H56
	c0,0-0.8,0-0.8,0.8l-1.6,6.4l0,0l0,0l-2.4-6.4c0-0.8-0.8-0.8-1.6-0.8H48c-0.8,0-0.8,0-0.8,0.8l-2.4,6.4l0,0l0,0l-1.6-6.4
	C42.4,32,42.4,32,41.6,32h-2.4c0,0-0.8,0-0.8,0.8v0.8l4,13.6c0,0.8,0.8,0.8,0.8,0.8h2.4c0.8,0,0.8,0,0.8-0.8l2.4-7.2c0,0,0,0,0-0.8
	c0,0,0,0,0,0.8l2.4,6.4c0,0.8,0.8,0.8,0.8,0.8h2.4c0.8,0,0.8,0,0.8-0.8l4-12l3.2,12c0,0.8,0.8,0.8,0.8,0.8h2.4c0.8,0,0.8,0,0.8-0.8
	l3.2-6.4c0,0,0,0,0-0.8c0,0,0,0,0,0.8l2.4,6.4c0,0.8,0.8,0.8,0.8,0.8h2.4c0.8,0,0.8,0,0.8-0.8l4-12l3.2,12c0,0.8,0.8,0.8,0.8,0.8
	h2.4c0.8,0,0.8,0,0.8-0.8l3.2-6.4c0,0,0,0,0-0.8c0,0,0,0,0,0.8l2.4,6.4c0,0.8,0.8,0.8,0.8,0.8H96c0.8,0,0.8,0,0.8-0.8l4-13.6
	C101.6,32.8,101.6,32,100.8,32z"/>
<g>
	<path style="fill:#DCE5E5;" d="M341.6,320h-56c-6.4,0-12,5.6-12,12s5.6,12,12,12h24.8c-20,16-45.6,30.4-73.6,30.4
		S182.4,364,162.4,344c-4.8-4.8-12-4.8-16.8,0s-4.8,12,0,16.8c24,24,56.8,37.6,91.2,37.6s66.4-13.6,90.4-37.6c0.8-0.8,0-0.8,0-1.6
		v29.6c0,6.4,5.6,12,12,12s12-5.6,12-12v-56C352,325.6,348,320,341.6,320z M328.8,344.8L328.8,344.8L328.8,344.8
		C329.6,344.8,329.6,344.8,328.8,344.8z"/>
	<path style="fill:#DCE5E5;" d="M154.4,264h56c6.4,0,12-5.6,12-12s-5.6-12-12-12h-24.8c20-24,45.6-30.4,73.6-30.4
		s54.4,10.4,74.4,30.4c2.4,2.4,5.6,3.2,8.8,3.2s6.4-1.6,8.8-4c4.8-4.8,4.8-12,0-16.8c-24-24-56.8-37.6-91.2-37.6
		s-66.4,13.6-90.4,37.6c-0.8,0.8,0,0.8,0,1.6v-29.6c0-6.4-5.6-12-12-12s-13.6,5.6-13.6,12v56C144,256.8,148,264,154.4,264z
		 M167.2,238.4L167.2,238.4L167.2,238.4C166.4,238.4,166.4,238.4,167.2,238.4z"/>
</g>
<g>
	<path style="fill:#38B6F4;" d="M341.6,304h-56c-6.4,0-12,5.6-12,12s5.6,12,12,12h24.8c-20,24-45.6,31.2-73.6,31.2
		s-54.4-10.4-74.4-29.6c-4.8-4.8-12-4-16.8,0s-4.8,12.8,0,16.8c24,24,56.8,37.6,91.2,37.6s66.4-13.6,90.4-37.6c0.8-0.8,0-0.8,0-1.6
		v29.6c0,6.4,5.6,12,12,12s12-5.6,12-12v-56C352,312.8,348,304,341.6,304z M328.8,331.2L328.8,331.2L328.8,331.2
		C329.6,331.2,329.6,331.2,328.8,331.2z"/>
	<path style="fill:#38B6F4;" d="M154.4,248h56c6.4,0,12-5.6,12-12s-5.6-12-12-12h-24.8c20-16,45.6-29.6,73.6-29.6
		s54.4,11.2,74.4,31.2c2.4,2.4,5.6,4,8.8,4s6.4-0.8,8.8-3.2c4.8-4.8,4.8-12,0-16.8c-24-24-56.8-37.6-91.2-37.6s-66.4,13.6-90.4,37.6
		c-0.8,0.8,0,0.8,0,1.6v-29.6c0-6.4-5.6-12-12-12s-13.6,4.8-13.6,11.2v56C144,244,148,248,154.4,248z M167.2,224.8L167.2,224.8
		L167.2,224.8C166.4,224.8,166.4,224.8,167.2,224.8z"/>
</g>
<g>
</g>
<g>
</g>
<g>
</g>
<g>
</g>
<g>
</g>
<g>
</g>
<g>
</g>
<g>
</g>
<g>
</g>
<g>
</g>
<g>
</g>
<g>
</g>
<g>
</g>
<g>
</g>
<g>
</g>
</svg>
