<?xml version="1.0" encoding="UTF-8" standalone="no"?>
<!-- Created with Inkscape (http://www.inkscape.org/) -->

<svg
   xmlns:dc="http://purl.org/dc/elements/1.1/"
   xmlns:cc="http://creativecommons.org/ns#"
   xmlns:rdf="http://www.w3.org/1999/02/22-rdf-syntax-ns#"
   xmlns:svg="http://www.w3.org/2000/svg"
   xmlns="http://www.w3.org/2000/svg"
   xmlns:sodipodi="http://sodipodi.sourceforge.net/DTD/sodipodi-0.dtd"
   xmlns:inkscape="http://www.inkscape.org/namespaces/inkscape"
   width="32"
   height="32"
   viewBox="0 0 32 32.000001"
   id="svg4244"
   version="1.1"
   inkscape:version="0.91 r13725"
   sodipodi:docname="3.svg">
  <defs
     id="defs4246" />
  <sodipodi:namedview
     id="base"
     pagecolor="#ffffff"
     bordercolor="#666666"
     borderopacity="1.0"
     inkscape:pageopacity="0.0"
     inkscape:pageshadow="2"
     inkscape:zoom="5.6"
     inkscape:cx="23.310134"
     inkscape:cy="10.413792"
     inkscape:document-units="px"
     inkscape:current-layer="layer1"
     showgrid="true"
     units="px"
     inkscape:window-width="1366"
     inkscape:window-height="705"
     inkscape:window-x="-8"
     inkscape:window-y="-8"
     inkscape:window-maximized="1"
     inkscape:snap-bbox="true"
     inkscape:bbox-paths="true"
     inkscape:bbox-nodes="true"
     inkscape:snap-bbox-edge-midpoints="true"
     inkscape:snap-bbox-midpoints="true">
    <inkscape:grid
       type="xygrid"
       id="grid4252" />
  </sodipodi:namedview>
  <metadata
     id="metadata4249">
    <rdf:RDF>
      <cc:Work
         rdf:about="">
        <dc:format>image/svg+xml</dc:format>
        <dc:type
           rdf:resource="http://purl.org/dc/dcmitype/StillImage" />
        <dc:title></dc:title>
      </cc:Work>
    </rdf:RDF>
  </metadata>
  <g
     inkscape:label="Layer 1"
     inkscape:groupmode="layer"
     id="layer1"
     transform="translate(0,-1020.3622)">
    <g
       id="g4999">
      <path
         id="rect5298"
         d="m 5.500046,1033.3621 20.999948,0 c 0.831014,0 1.500026,0.6442 1.500026,1.4444 l 0,15.1112 c 0,0.8002 -0.669012,1.4445 -1.500026,1.4445 l -20.999948,0 c -0.8310144,0 -1.500026,-0.6443 -1.500026,-1.4445 l 0,-15.1112 c 0,-0.8002 0.6690116,-1.4444 1.500026,-1.4444 z"
         style="fill:#fd0437;fill-opacity:1;stroke:none;stroke-width:0.5;stroke-linecap:round;stroke-linejoin:round;stroke-opacity:1" />
      <path
         inkscape:connector-curvature="0"
         id="rect14271"
         d="m 26.00002,1033.3619 0,13 c 0,2.77 -2.22999,5 -5,5 l 5.5,0 c 0.83101,0 1.5,-0.6431 1.5,-1.4434 l 0,-15.1113 c 0,-0.8002 -0.66899,-1.4453 -1.5,-1.4453 l -0.5,0 z M 4.8633,1051.2213 c 0.19389,0.088 0.40756,0.1406 0.63672,0.1406 l 0.5,0 c -0.39304,0 -0.77025,-0.056 -1.13672,-0.1406 z"
         style="fill:#d60724;fill-opacity:1;stroke:none;stroke-width:0.5;stroke-linecap:round;stroke-linejoin:round;stroke-opacity:1" />
      <path
         inkscape:connector-curvature="0"
         id="path5302"
         d="m 10.6554,1040.0234 -0.46941,-0.2935 -0.46907,0.2941 0.13412,-0.5372 -0.42464,-0.3552 0.5523,-0.038 0.20662,-0.5137 0.20723,0.5134 0.55234,0.038 -0.42423,0.3558 z"
         style="opacity:1;fill:#fda816;fill-opacity:1;stroke:none;stroke-width:1;stroke-linecap:round;stroke-linejoin:round;stroke-opacity:1" />
      <path
         inkscape:connector-curvature="0"
         id="path5308"
         d="m 7.7324649,1038.2175 -0.7041136,-0.4403 -0.7036036,0.4412 0.2011715,-0.8058 -0.6369569,-0.5328 0.8284461,-0.058 0.3099426,-0.7704 0.3108355,0.7701 0.8285109,0.057 -0.6363371,0.5336 z"
         style="opacity:1;fill:#fda816;fill-opacity:1;stroke:none;stroke-width:1;stroke-linecap:round;stroke-linejoin:round;stroke-opacity:1" />
      <path
         inkscape:connector-curvature="0"
         id="path5310"
         d="m 7.7324649,1042.5509 -0.7041136,-0.4403 -0.7036036,0.4411 0.2011715,-0.8057 -0.6369569,-0.5329 0.8284461,-0.058 0.3099426,-0.7705 0.3108355,0.7701 0.8285109,0.057 -0.6363371,0.5336 z"
         style="opacity:1;fill:#fda816;fill-opacity:1;stroke:none;stroke-width:1;stroke-linecap:round;stroke-linejoin:round;stroke-opacity:1" />
      <path
         inkscape:connector-curvature="0"
         id="path5314"
         d="m 7.7324649,1046.5231 -0.7041136,-0.4403 -0.7036036,0.4411 0.2011715,-0.8057 -0.6369569,-0.5329 0.8284461,-0.058 0.3099426,-0.7705 0.3108355,0.7701 0.8285109,0.057 -0.6363371,0.5336 z"
         style="opacity:1;fill:#fda816;fill-opacity:1;stroke:none;stroke-width:1;stroke-linecap:round;stroke-linejoin:round;stroke-opacity:1" />
      <path
         inkscape:connector-curvature="0"
         id="path5316"
         d="m 7.7324649,1050.8564 -0.7041136,-0.4403 -0.7036036,0.4411 0.2011715,-0.8057 -0.6369569,-0.5328 0.8284461,-0.058 0.3099426,-0.7704 0.3108355,0.77 0.8285109,0.057 -0.6363371,0.5336 z"
         style="opacity:1;fill:#fda816;fill-opacity:1;stroke:none;stroke-width:1;stroke-linecap:round;stroke-linejoin:round;stroke-opacity:1" />
      <path
         inkscape:connector-curvature="0"
         id="path5319"
         d="m 10.6554,1048.329 -0.46941,-0.2935 -0.46907,0.2941 0.13412,-0.5372 -0.42464,-0.3552 0.5523,-0.038 0.20662,-0.5137 0.20723,0.5134 0.55234,0.038 -0.42423,0.3558 z"
         style="opacity:1;fill:#fda816;fill-opacity:1;stroke:none;stroke-width:1;stroke-linecap:round;stroke-linejoin:round;stroke-opacity:1" />
      <path
         inkscape:connector-curvature="0"
         id="path5321"
         d="m 10.6554,1044.1761 -0.46941,-0.2935 -0.46907,0.2941 0.13412,-0.5372 -0.42464,-0.3552 0.5523,-0.038 0.20662,-0.5137 0.20723,0.5134 0.55234,0.038 -0.42423,0.3558 z"
         style="opacity:1;fill:#fda816;fill-opacity:1;stroke:none;stroke-width:1;stroke-linecap:round;stroke-linejoin:round;stroke-opacity:1" />
      <path
         inkscape:connector-curvature="0"
         id="path5323"
         d="m 17.15499,1040.0234 -0.46941,-0.2935 -0.46907,0.2941 0.13412,-0.5372 -0.42464,-0.3552 0.5523,-0.038 0.20662,-0.5137 0.20723,0.5134 0.55234,0.038 -0.42423,0.3558 z"
         style="opacity:1;fill:#fda816;fill-opacity:1;stroke:none;stroke-width:1;stroke-linecap:round;stroke-linejoin:round;stroke-opacity:1" />
      <path
         inkscape:connector-curvature="0"
         id="path5329"
         d="m 13.510225,1038.2175 -0.704114,-0.4403 -0.703603,0.4412 0.201171,-0.8058 -0.636957,-0.5328 0.828446,-0.058 0.309943,-0.7704 0.310835,0.7701 0.828511,0.057 -0.636337,0.5336 z"
         style="opacity:1;fill:#fda816;fill-opacity:1;stroke:none;stroke-width:1;stroke-linecap:round;stroke-linejoin:round;stroke-opacity:1" />
      <path
         inkscape:connector-curvature="0"
         id="path5331"
         d="m 13.510225,1042.5509 -0.704114,-0.4403 -0.703603,0.4411 0.201171,-0.8057 -0.636957,-0.5329 0.828446,-0.058 0.309943,-0.7705 0.310835,0.7701 0.828511,0.057 -0.636337,0.5336 z"
         style="opacity:1;fill:#fda816;fill-opacity:1;stroke:none;stroke-width:1;stroke-linecap:round;stroke-linejoin:round;stroke-opacity:1" />
      <path
         inkscape:connector-curvature="0"
         id="path5335"
         d="m 13.510225,1046.5231 -0.704114,-0.4403 -0.703603,0.4411 0.201171,-0.8057 -0.636957,-0.5329 0.828446,-0.058 0.309943,-0.7705 0.310835,0.7701 0.828511,0.057 -0.636337,0.5336 z"
         style="opacity:1;fill:#fda816;fill-opacity:1;stroke:none;stroke-width:1;stroke-linecap:round;stroke-linejoin:round;stroke-opacity:1" />
      <path
         inkscape:connector-curvature="0"
         id="path5337"
         d="m 13.510225,1050.8564 -0.704114,-0.4403 -0.703603,0.4411 0.201171,-0.8057 -0.636957,-0.5328 0.828446,-0.058 0.309943,-0.7704 0.310835,0.77 0.828511,0.057 -0.636337,0.5336 z"
         style="opacity:1;fill:#fda816;fill-opacity:1;stroke:none;stroke-width:1;stroke-linecap:round;stroke-linejoin:round;stroke-opacity:1" />
      <path
         inkscape:connector-curvature="0"
         id="path5339"
         d="m 17.15499,1048.329 -0.46941,-0.2935 -0.46907,0.2941 0.13412,-0.5372 -0.42464,-0.3552 0.5523,-0.038 0.20662,-0.5137 0.20723,0.5134 0.55234,0.038 -0.42423,0.3558 z"
         style="opacity:1;fill:#fda816;fill-opacity:1;stroke:none;stroke-width:1;stroke-linecap:round;stroke-linejoin:round;stroke-opacity:1" />
      <path
         inkscape:connector-curvature="0"
         id="path5341"
         d="m 17.15499,1044.1761 -0.46941,-0.2935 -0.46907,0.2941 0.13412,-0.5372 -0.42464,-0.3552 0.5523,-0.038 0.20662,-0.5137 0.20723,0.5134 0.55234,0.038 -0.42423,0.3558 z"
         style="opacity:1;fill:#fda816;fill-opacity:1;stroke:none;stroke-width:1;stroke-linecap:round;stroke-linejoin:round;stroke-opacity:1" />
      <path
         inkscape:connector-curvature="0"
         id="path5343"
         d="m 23.65537,1040.0234 -0.46941,-0.2935 -0.46907,0.2941 0.13412,-0.5372 -0.42464,-0.3552 0.5523,-0.038 0.20662,-0.5137 0.20723,0.5134 0.55234,0.038 -0.42423,0.3558 z"
         style="opacity:1;fill:#fda816;fill-opacity:1;stroke:none;stroke-width:1;stroke-linecap:round;stroke-linejoin:round;stroke-opacity:1" />
      <path
         inkscape:connector-curvature="0"
         id="path5349"
         d="m 20.732445,1038.2175 -0.704114,-0.4403 -0.703603,0.4412 0.201171,-0.8058 -0.636957,-0.5328 0.828446,-0.058 0.309943,-0.7704 0.310835,0.7701 0.828511,0.057 -0.636337,0.5336 z"
         style="opacity:1;fill:#fda816;fill-opacity:1;stroke:none;stroke-width:1;stroke-linecap:round;stroke-linejoin:round;stroke-opacity:1" />
      <path
         inkscape:connector-curvature="0"
         id="path5351"
         d="m 20.732445,1042.5509 -0.704114,-0.4403 -0.703603,0.4411 0.201171,-0.8057 -0.636957,-0.5329 0.828446,-0.058 0.309943,-0.7705 0.310835,0.7701 0.828511,0.057 -0.636337,0.5336 z"
         style="opacity:1;fill:#fda816;fill-opacity:1;stroke:none;stroke-width:1;stroke-linecap:round;stroke-linejoin:round;stroke-opacity:1" />
      <path
         inkscape:connector-curvature="0"
         id="path5355"
         d="m 20.732445,1046.5231 -0.704114,-0.4403 -0.703603,0.4411 0.201171,-0.8057 -0.636957,-0.5329 0.828446,-0.058 0.309943,-0.7705 0.310835,0.7701 0.828511,0.057 -0.636337,0.5336 z"
         style="opacity:1;fill:#fda816;fill-opacity:1;stroke:none;stroke-width:1;stroke-linecap:round;stroke-linejoin:round;stroke-opacity:1" />
      <path
         inkscape:connector-curvature="0"
         id="path5357"
         d="m 20.732445,1050.8564 -0.704114,-0.4403 -0.703603,0.4411 0.201171,-0.8057 -0.636957,-0.5328 0.828446,-0.058 0.309943,-0.7704 0.310835,0.77 0.828511,0.057 -0.636337,0.5336 z"
         style="opacity:1;fill:#fda816;fill-opacity:1;stroke:none;stroke-width:1;stroke-linecap:round;stroke-linejoin:round;stroke-opacity:1" />
      <path
         inkscape:connector-curvature="0"
         id="path5359"
         d="m 23.65537,1048.329 -0.46941,-0.2935 -0.46907,0.2941 0.13412,-0.5372 -0.42464,-0.3552 0.5523,-0.038 0.20662,-0.5137 0.20723,0.5134 0.55234,0.038 -0.42423,0.3558 z"
         style="opacity:1;fill:#fda816;fill-opacity:1;stroke:none;stroke-width:1;stroke-linecap:round;stroke-linejoin:round;stroke-opacity:1" />
      <path
         inkscape:connector-curvature="0"
         id="path5361"
         d="m 23.65537,1044.1761 -0.46941,-0.2935 -0.46907,0.2941 0.13412,-0.5372 -0.42464,-0.3552 0.5523,-0.038 0.20662,-0.5137 0.20723,0.5134 0.55234,0.038 -0.42423,0.3558 z"
         style="opacity:1;fill:#fda816;fill-opacity:1;stroke:none;stroke-width:1;stroke-linecap:round;stroke-linejoin:round;stroke-opacity:1" />
      <path
         id="path5367"
         d="m 22.058937,1047.3622 -5.906923,-4.6236 -6.7391588,3.2945 2.5720368,-7.0466 -5.2157871,-5.3913 7.4965291,0.2687 3.515625,-6.6265 2.061072,7.2126 7.388563,1.2958 -6.222715,4.1891 z"
         style="opacity:1;fill:#fda816;fill-opacity:1;stroke:none;stroke-width:1;stroke-linecap:round;stroke-linejoin:round;stroke-opacity:1"
         transform="matrix(0.11009355,-0.01163585,0.01163585,0.11009355,11.89472,923.16638)" />
      <path
         id="path5369"
         d="m 22.058937,1047.3622 -5.906923,-4.6236 -6.7391588,3.2945 2.5720368,-7.0466 -5.2157871,-5.3913 7.4965291,0.2687 3.515625,-6.6265 2.061072,7.2126 7.388563,1.2958 -6.222715,4.1891 z"
         style="opacity:1;fill:#fda816;fill-opacity:1;stroke:none;stroke-width:1;stroke-linecap:round;stroke-linejoin:round;stroke-opacity:1"
         transform="matrix(0.11009355,-0.01163585,0.01163585,0.11009355,11.89472,927.49971)" />
      <path
         inkscape:connector-curvature="0"
         id="path14255"
         d="m 26.00003,1036.5359 0,1.3632 0.50977,0.3184 -0.20118,-0.8047 0.63672,-0.5351 -0.83008,-0.057 -0.11523,-0.2851 z m 0,4.3339 0,1.3614 0.50977,0.3203 -0.20118,-0.8067 0.63672,-0.5332 -0.83008,-0.057 -0.11523,-0.2852 z m 0,3.9727 0,1.3613 0.50977,0.3203 -0.20118,-0.8066 0.63672,-0.5332 -0.83008,-0.057 -0.11523,-0.2852 z m 0,4.332 0,0.7442 c 0,0.195 -0.0411,0.3794 -0.11328,0.5488 l 0.62305,0.3887 -0.20118,-0.8047 0.63672,-0.5332 -0.83008,-0.057 -0.11523,-0.2871 z"
         style="opacity:1;fill:#ff8901;fill-opacity:1;stroke:none;stroke-width:1;stroke-linecap:round;stroke-linejoin:round;stroke-opacity:1" />
      <path
         id="path5373"
         d="m 22.058937,1047.3622 -5.906923,-4.6236 -6.7391588,3.2945 2.5720368,-7.0466 -5.2157871,-5.3913 7.4965291,0.2687 3.515625,-6.6265 2.061072,7.2126 7.388563,1.2958 -6.222715,4.1891 z"
         style="opacity:1;fill:#fda816;fill-opacity:1;stroke:none;stroke-width:1;stroke-linecap:round;stroke-linejoin:round;stroke-opacity:1"
         transform="matrix(0.11009355,-0.01163585,0.01163585,0.11009355,11.89472,931.47192)" />
      <path
         id="path5375"
         d="m 22.058937,1047.3622 -5.906923,-4.6236 -6.7391588,3.2945 2.5720368,-7.0466 -5.2157871,-5.3913 7.4965291,0.2687 3.515625,-6.6265 2.061072,7.2126 7.388563,1.2958 -6.222715,4.1891 z"
         style="opacity:1;fill:#ff8901;fill-opacity:1;stroke:none;stroke-width:1;stroke-linecap:round;stroke-linejoin:round;stroke-opacity:1"
         transform="matrix(0.11009355,-0.01163585,0.01163585,0.11009355,11.89472,935.80525)" />
      <path
         id="rect5300"
         d="m 4.0000985,1029.3621 23.9999255,0 c 0.554009,0 1.000017,0.446 1.000017,1 l 0,4 c 0,0.554 -0.446008,1 -1.000017,1 l -23.9999255,0 c -0.5540097,0 -1.0000174,-0.446 -1.0000174,-1 l 0,-4 c 0,-0.554 0.4460077,-1 1.0000174,-1 z"
         style="fill:#d60724;fill-opacity:1;stroke:none;stroke-width:0.5;stroke-linecap:round;stroke-linejoin:round;stroke-opacity:1" />
      <path
         inkscape:connector-curvature="0"
         id="rect14244"
         d="m 26.00002,1029.3619 c 0.55401,0 1,0.446 1,1 l 0,4 c 0,0.554 -0.44599,1 -1,1 l 2,0 c 0.55401,0 1,-0.446 1,-1 l 0,-4 c 0,-0.554 -0.44599,-1 -1,-1 l -2,0 z"
         style="fill:#c2001a;fill-opacity:1;stroke:none;stroke-width:0.5;stroke-linecap:round;stroke-linejoin:round;stroke-opacity:1" />
      <path
         inkscape:connector-curvature="0"
         id="path5378"
         d="m 5.45472,1034.6727 -0.70412,-0.4403 -0.7036,0.4411 0.20117,-0.8057 -0.63696,-0.5329 0.82845,-0.058 0.30994,-0.7705 0.31084,0.7701 0.82851,0.057 -0.63634,0.5336 z"
         style="opacity:1;fill:#ff9a00;fill-opacity:1;stroke:none;stroke-width:1;stroke-linecap:round;stroke-linejoin:round;stroke-opacity:1" />
      <path
         inkscape:connector-curvature="0"
         id="path5380"
         d="m 6.1044,1031.3686 0.46941,-0.2935 0.46907,0.294 -0.13412,-0.5371 0.42464,-0.3553 -0.5523,-0.038 -0.20662,-0.5136 -0.20723,0.5134 -0.55234,0.038 0.42423,0.3557 z"
         style="opacity:1;fill:#ff9a00;fill-opacity:1;stroke:none;stroke-width:1;stroke-linecap:round;stroke-linejoin:round;stroke-opacity:1" />
      <path
         inkscape:connector-curvature="0"
         id="path5382"
         d="m 11.34357,1031.7294 -0.70412,-0.4403 -0.7036,0.4411 0.20117,-0.8057 -0.63696,-0.5328 0.82845,-0.058 0.30994,-0.7704 0.31084,0.7701 0.82851,0.057 -0.63634,0.5336 z"
         style="opacity:1;fill:#ff9a00;fill-opacity:1;stroke:none;stroke-width:1;stroke-linecap:round;stroke-linejoin:round;stroke-opacity:1" />
      <path
         inkscape:connector-curvature="0"
         id="path5384"
         d="m 8.32659,1034.6729 0.46941,-0.2935 0.46907,0.294 -0.13412,-0.5371 0.42464,-0.3553 -0.5523,-0.038 -0.20662,-0.5136 -0.20723,0.5134 -0.55234,0.038 0.42423,0.3557 z"
         style="opacity:1;fill:#ff9a00;fill-opacity:1;stroke:none;stroke-width:1;stroke-linecap:round;stroke-linejoin:round;stroke-opacity:1" />
      <path
         inkscape:connector-curvature="0"
         id="path5386"
         d="m 14.0103,1034.6727 -0.70412,-0.4403 -0.7036,0.4411 0.20117,-0.8057 -0.63696,-0.5329 0.82845,-0.058 0.30994,-0.7705 0.31084,0.7701 0.82851,0.057 -0.63634,0.5336 z"
         style="opacity:1;fill:#ff9a00;fill-opacity:1;stroke:none;stroke-width:1;stroke-linecap:round;stroke-linejoin:round;stroke-opacity:1" />
      <path
         inkscape:connector-curvature="0"
         id="path5388"
         d="m 14.65998,1031.3686 0.46941,-0.2935 0.46907,0.294 -0.13412,-0.5371 0.42464,-0.3553 -0.5523,-0.038 -0.20662,-0.5136 -0.20723,0.5134 -0.55234,0.038 0.42423,0.3557 z"
         style="opacity:1;fill:#ff9a00;fill-opacity:1;stroke:none;stroke-width:1;stroke-linecap:round;stroke-linejoin:round;stroke-opacity:1" />
      <path
         inkscape:connector-curvature="0"
         id="path5390"
         d="m 19.89914,1031.7294 -0.70412,-0.4403 -0.7036,0.4411 0.20117,-0.8057 -0.63696,-0.5328 0.82845,-0.058 0.30994,-0.7704 0.31084,0.7701 0.82851,0.057 -0.63634,0.5336 z"
         style="opacity:1;fill:#ff9a00;fill-opacity:1;stroke:none;stroke-width:1;stroke-linecap:round;stroke-linejoin:round;stroke-opacity:1" />
      <path
         inkscape:connector-curvature="0"
         id="path5392"
         d="m 16.88217,1034.6729 0.46941,-0.2935 0.46907,0.294 -0.13412,-0.5371 0.42464,-0.3553 -0.5523,-0.038 -0.20662,-0.5136 -0.20723,0.5134 -0.55234,0.038 0.42423,0.3557 z"
         style="opacity:1;fill:#ff9a00;fill-opacity:1;stroke:none;stroke-width:1;stroke-linecap:round;stroke-linejoin:round;stroke-opacity:1" />
      <path
         inkscape:connector-curvature="0"
         id="path5394"
         d="m 22.78803,1034.6727 -0.70412,-0.4403 -0.7036,0.4411 0.20117,-0.8057 -0.63696,-0.5329 0.82845,-0.058 0.30994,-0.7705 0.31084,0.7701 0.82851,0.057 -0.63634,0.5336 z"
         style="opacity:1;fill:#ff9a00;fill-opacity:1;stroke:none;stroke-width:1;stroke-linecap:round;stroke-linejoin:round;stroke-opacity:1" />
      <path
         inkscape:connector-curvature="0"
         id="path5396"
         d="m 23.43771,1031.3686 0.46941,-0.2935 0.46907,0.294 -0.13412,-0.5371 0.42464,-0.3553 -0.5523,-0.038 -0.20662,-0.5136 -0.20723,0.5134 -0.55234,0.038 0.42423,0.3557 z"
         style="opacity:1;fill:#ff9a00;fill-opacity:1;stroke:none;stroke-width:1;stroke-linecap:round;stroke-linejoin:round;stroke-opacity:1" />
      <path
         inkscape:connector-curvature="0"
         id="path5400"
         d="m 25.65991,1034.6729 0.46941,-0.2935 0.46907,0.294 -0.13412,-0.5371 0.42464,-0.3553 -0.5523,-0.038 -0.20662,-0.5136 -0.20723,0.5134 -0.55234,0.038 0.42423,0.3557 z"
         style="opacity:1;fill:#ff9a00;fill-opacity:1;stroke:none;stroke-width:1;stroke-linecap:round;stroke-linejoin:round;stroke-opacity:1" />
      <path
         sodipodi:nodetypes="cccccccccc"
         inkscape:connector-curvature="0"
         id="path5402"
         d="m 3.00001,1030.8529 0,0.02 0.57834,-0.4824 -0.57335,-0.034 c 0,0 -0.004,0.3592 -0.005,0.4964 z m 0,0.3046 0,0.4825 0.14387,0.089 -0.14387,-0.5727 z"
         style="opacity:1;fill:#ff9a00;fill-opacity:1;stroke:none;stroke-width:1;stroke-linecap:round;stroke-linejoin:round;stroke-opacity:1" />
      <path
         inkscape:connector-curvature="0"
         id="path5406"
         d="m 15,1029.3477 0,22.0136 2,0 0,-22.0136 -2,0 z"
         style="color:#000000;font-style:normal;font-variant:normal;font-weight:normal;font-stretch:normal;font-size:medium;line-height:normal;font-family:sans-serif;text-indent:0;text-align:start;text-decoration:none;text-decoration-line:none;text-decoration-style:solid;text-decoration-color:#000000;letter-spacing:normal;word-spacing:normal;text-transform:none;direction:ltr;block-progression:tb;writing-mode:lr-tb;baseline-shift:baseline;text-anchor:start;white-space:normal;clip-rule:nonzero;display:inline;overflow:visible;visibility:visible;opacity:1;isolation:auto;mix-blend-mode:normal;color-interpolation:sRGB;color-interpolation-filters:linearRGB;solid-color:#000000;solid-opacity:1;fill:#0088fe;fill-opacity:1;fill-rule:evenodd;stroke:none;stroke-width:2;stroke-linecap:butt;stroke-linejoin:miter;stroke-miterlimit:4;stroke-dasharray:none;stroke-dashoffset:0;stroke-opacity:1;color-rendering:auto;image-rendering:auto;shape-rendering:auto;text-rendering:auto;enable-background:accumulate" />
      <path
         sodipodi:nodetypes="cccccc"
         inkscape:connector-curvature="0"
         id="path5412"
         d="m 15.26564,1027.361 c -2.92796,0 -5.32424,2.3963 -5.32421,5.3242 l 1.19959,-1.1003 0.80041,1.1003 c -2e-5,-1.847 1.47714,-3.3242 3.32421,-3.3242 z"
         style="color:#000000;font-style:normal;font-variant:normal;font-weight:normal;font-stretch:normal;font-size:medium;line-height:normal;font-family:sans-serif;text-indent:0;text-align:start;text-decoration:none;text-decoration-line:none;text-decoration-style:solid;text-decoration-color:#000000;letter-spacing:normal;word-spacing:normal;text-transform:none;direction:ltr;block-progression:tb;writing-mode:lr-tb;baseline-shift:baseline;text-anchor:start;white-space:normal;clip-rule:nonzero;display:inline;overflow:visible;visibility:visible;opacity:1;isolation:auto;mix-blend-mode:normal;color-interpolation:sRGB;color-interpolation-filters:linearRGB;solid-color:#000000;solid-opacity:1;fill:#0088fe;fill-opacity:1;fill-rule:nonzero;stroke:none;stroke-width:2;stroke-linecap:butt;stroke-linejoin:miter;stroke-miterlimit:4;stroke-dasharray:none;stroke-dashoffset:0;stroke-opacity:1;color-rendering:auto;image-rendering:auto;shape-rendering:auto;text-rendering:auto;enable-background:accumulate" />
      <path
         sodipodi:nodetypes="cccccc"
         inkscape:connector-curvature="0"
         id="path5414"
         d="m 16.73244,1027.361 c 2.92797,0 5.32229,2.3963 5.32227,5.3242 l -1.09969,-1.0003 -0.90031,1.0003 c 10e-6,-1.847 -1.47519,-3.3242 -3.32227,-3.3242 z"
         style="color:#000000;font-style:normal;font-variant:normal;font-weight:normal;font-stretch:normal;font-size:medium;line-height:normal;font-family:sans-serif;text-indent:0;text-align:start;text-decoration:none;text-decoration-line:none;text-decoration-style:solid;text-decoration-color:#000000;letter-spacing:normal;word-spacing:normal;text-transform:none;direction:ltr;block-progression:tb;writing-mode:lr-tb;baseline-shift:baseline;text-anchor:start;white-space:normal;clip-rule:nonzero;display:inline;overflow:visible;visibility:visible;opacity:1;isolation:auto;mix-blend-mode:normal;color-interpolation:sRGB;color-interpolation-filters:linearRGB;solid-color:#000000;solid-opacity:1;fill:#0088fe;fill-opacity:1;fill-rule:nonzero;stroke:none;stroke-width:2;stroke-linecap:butt;stroke-linejoin:miter;stroke-miterlimit:4;stroke-dasharray:none;stroke-dashoffset:0;stroke-opacity:1;color-rendering:auto;image-rendering:auto;shape-rendering:auto;text-rendering:auto;enable-background:accumulate" />
      <path
         inkscape:connector-curvature="0"
         id="path14330"
         d="m 15.26564,1027.3619 c -2.09474,0 -3.91161,1.2297 -4.77929,3 l 2.39844,0 c 0.6022,-0.6171 1.44273,-1 2.38085,-1 l 0,-2 z m 1.4668,0 0,2 c 0.93814,0 1.7772,0.3829 2.37891,1 l 2.39844,0 c -0.86711,-1.7703 -2.68259,-3 -4.77735,-3 z"
         style="color:#000000;font-style:normal;font-variant:normal;font-weight:normal;font-stretch:normal;font-size:medium;line-height:normal;font-family:sans-serif;text-indent:0;text-align:start;text-decoration:none;text-decoration-line:none;text-decoration-style:solid;text-decoration-color:#000000;letter-spacing:normal;word-spacing:normal;text-transform:none;direction:ltr;block-progression:tb;writing-mode:lr-tb;baseline-shift:baseline;text-anchor:start;white-space:normal;clip-rule:nonzero;display:inline;overflow:visible;visibility:visible;opacity:1;isolation:auto;mix-blend-mode:normal;color-interpolation:sRGB;color-interpolation-filters:linearRGB;solid-color:#000000;solid-opacity:1;fill:#006ef4;fill-opacity:1;fill-rule:nonzero;stroke:none;stroke-width:2;stroke-linecap:butt;stroke-linejoin:miter;stroke-miterlimit:4;stroke-dasharray:none;stroke-dashoffset:0;stroke-opacity:1;color-rendering:auto;image-rendering:auto;shape-rendering:auto;text-rendering:auto;enable-background:accumulate" />
      <path
         sodipodi:nodetypes="cccccccccccc"
         inkscape:connector-curvature="0"
         id="path14252"
         d="m 28.67688,1031.7294 -0.70412,-0.4403 -0.7036,0.4411 0.20117,-0.8057 -0.63696,-0.5328 0.82845,-0.058 0.30994,-0.7704 0.31084,0.77 0.71384,0.049 0.003,0.1013 -0.5249,0.4401 z"
         style="opacity:1;fill:#ff8901;fill-opacity:1;stroke:none;stroke-width:1;stroke-linecap:round;stroke-linejoin:round;stroke-opacity:1" />
      <path
         inkscape:connector-curvature="0"
         id="path5408"
         d="m 12,1022.6152 c -1.894369,0 -3.5,1.493 -3.5,3.3731 0,1.8802 1.605583,3.373 3.5,3.373 l 4,0 a 1.0001,1.0001 0 0 0 0.962891,-1.2715 c -0.322933,-1.144 -0.560003,-2.3863 -1.181641,-3.4843 -0.621638,-1.0981 -1.83753,-1.9903 -3.480469,-1.9903 l -0.300781,0 z m 0,2 0.300781,0 c 1.057062,0 1.35434,0.295 1.740235,0.9766 0.224565,0.3967 0.397791,1.1377 0.580078,1.7695 l -2.621094,0 c -0.875603,0 -1.5,-0.6234 -1.5,-1.373 0,-0.7492 0.624349,-1.3731 1.5,-1.3731 z"
         style="color:#000000;font-style:normal;font-variant:normal;font-weight:normal;font-stretch:normal;font-size:medium;line-height:normal;font-family:sans-serif;text-indent:0;text-align:start;text-decoration:none;text-decoration-line:none;text-decoration-style:solid;text-decoration-color:#000000;letter-spacing:normal;word-spacing:normal;text-transform:none;direction:ltr;block-progression:tb;writing-mode:lr-tb;baseline-shift:baseline;text-anchor:start;white-space:normal;clip-rule:nonzero;display:inline;overflow:visible;visibility:visible;opacity:1;isolation:auto;mix-blend-mode:normal;color-interpolation:sRGB;color-interpolation-filters:linearRGB;solid-color:#000000;solid-opacity:1;fill:#0088fe;fill-opacity:1;fill-rule:nonzero;stroke:none;stroke-width:2;stroke-linecap:round;stroke-linejoin:round;stroke-miterlimit:4;stroke-dasharray:none;stroke-dashoffset:0;stroke-opacity:1;color-rendering:auto;image-rendering:auto;shape-rendering:auto;text-rendering:auto;enable-background:accumulate" />
      <path
         inkscape:connector-curvature="0"
         id="path5410"
         d="m 19.699219,1022.6152 c -1.642939,0 -2.858831,0.8922 -3.480469,1.9903 -0.621638,1.098 -0.858708,2.3403 -1.181641,3.4843 A 1.0001,1.0001 0 0 0 16,1029.3613 l 4,0 c 1.894417,0 3.5,-1.4928 3.5,-3.373 0,-1.8801 -1.605631,-3.3731 -3.5,-3.3731 l -0.300781,0 z m 0,2 0.300781,0 c 0.875651,0 1.5,0.6239 1.5,1.3731 0,0.7496 -0.624397,1.373 -1.5,1.373 l -2.621094,0 c 0.182287,-0.6318 0.355513,-1.3728 0.580078,-1.7695 0.385895,-0.6816 0.683173,-0.9766 1.740235,-0.9766 z"
         style="color:#000000;font-style:normal;font-variant:normal;font-weight:normal;font-stretch:normal;font-size:medium;line-height:normal;font-family:sans-serif;text-indent:0;text-align:start;text-decoration:none;text-decoration-line:none;text-decoration-style:solid;text-decoration-color:#000000;letter-spacing:normal;word-spacing:normal;text-transform:none;direction:ltr;block-progression:tb;writing-mode:lr-tb;baseline-shift:baseline;text-anchor:start;white-space:normal;clip-rule:nonzero;display:inline;overflow:visible;visibility:visible;opacity:1;isolation:auto;mix-blend-mode:normal;color-interpolation:sRGB;color-interpolation-filters:linearRGB;solid-color:#000000;solid-opacity:1;fill:#0088fe;fill-opacity:1;fill-rule:nonzero;stroke:none;stroke-width:2;stroke-linecap:round;stroke-linejoin:round;stroke-miterlimit:4;stroke-dasharray:none;stroke-dashoffset:0;stroke-opacity:1;color-rendering:auto;image-rendering:auto;shape-rendering:auto;text-rendering:auto;enable-background:accumulate" />
    </g>
  </g>
</svg>
