<?xml version="1.0" encoding="UTF-8" standalone="no"?>
<!-- Generator: Adobe Illustrator 19.2.0, SVG Export Plug-In . SVG Version: 6.00 Build 0)  -->

<svg
   xmlns:dc="http://purl.org/dc/elements/1.1/"
   xmlns:cc="http://creativecommons.org/ns#"
   xmlns:rdf="http://www.w3.org/1999/02/22-rdf-syntax-ns#"
   xmlns:svg="http://www.w3.org/2000/svg"
   xmlns="http://www.w3.org/2000/svg"
   xmlns:sodipodi="http://sodipodi.sourceforge.net/DTD/sodipodi-0.dtd"
   xmlns:inkscape="http://www.inkscape.org/namespaces/inkscape"
   version="1.1"
   id="Layer_1"
   x="0px"
   y="0px"
   viewBox="0 0 40 40"
   style="enable-background:new 0 0 40 40;"
   xml:space="preserve"
   sodipodi:docname="clone.svg"
   inkscape:version="0.92.3 (2405546, 2018-03-11)"><metadata
   id="metadata7434"><rdf:RDF><cc:Work
       rdf:about=""><dc:format>image/svg+xml</dc:format><dc:type
         rdf:resource="http://purl.org/dc/dcmitype/StillImage" /><dc:title></dc:title></cc:Work></rdf:RDF></metadata><defs
   id="defs7432" /><sodipodi:namedview
   pagecolor="#ffffff"
   bordercolor="#666666"
   borderopacity="1"
   objecttolerance="10"
   gridtolerance="10"
   guidetolerance="10"
   inkscape:pageopacity="0"
   inkscape:pageshadow="2"
   inkscape:window-width="1600"
   inkscape:window-height="867"
   id="namedview7430"
   showgrid="false"
   inkscape:zoom="12.445079"
   inkscape:cx="11.362706"
   inkscape:cy="16.446236"
   inkscape:window-x="0"
   inkscape:window-y="33"
   inkscape:window-maximized="1"
   inkscape:current-layer="Layer_1" />
<g
   id="g7393">
	<circle
   style="fill:#FFEEA3;"
   cx="9.465"
   cy="4.5"
   r="3"
   id="circle7389" />
	<path
   style="fill:#BA9B48;"
   d="M9.465,2c1.379,0,2.5,1.122,2.5,2.5S10.844,7,9.465,7s-2.5-1.122-2.5-2.5S8.086,2,9.465,2 M9.465,1   c-1.933,0-3.5,1.567-3.5,3.5S7.532,8,9.465,8c1.933,0,3.5-1.567,3.5-3.5S11.398,1,9.465,1L9.465,1z"
   id="path7391" />
</g>
<g
   id="g7401">
	<path
   style="fill:#C2E8FF;"
   d="M12,37.5c-0.827,0-1.5-0.673-1.5-1.5V24.5h-2v11.458C8.5,36.823,7.841,37.5,7,37.5   c-0.827,0-1.5-0.673-1.5-1.5V24.5H5c-0.827,0-1.5-0.673-1.5-1.5v-8c0-3.033,2.468-5.5,5.5-5.5h1c3.032,0,5.5,2.467,5.5,5.5v8   c0,0.827-0.673,1.5-1.5,1.5h-0.5V36C13.5,36.827,12.827,37.5,12,37.5z"
   id="path7395" />
	<g
   id="g7399">
		<path
   style="fill:#7496C4;"
   d="M10,10c2.757,0,5,2.243,5,5v8c0,0.551-0.449,1-1,1h-1v1v11c0,0.551-0.449,1-1,1s-1-0.449-1-1V25v-1    h-1H9H8v1v10.958C8,36.542,7.561,37,7,37c-0.551,0-1-0.449-1-1V25v-1H5c-0.551,0-1-0.449-1-1v-8c0-2.757,2.243-5,5-5H10 M10,9H9h0    h0c-3.313,0-6,2.686-6,6v0v8c0,1.105,0.895,2,2,2v11c0,1.105,0.895,2,2,2c1.105,0,2-0.895,2-2.042V25h1v11c0,1.1,0.9,2,2,2    s2-0.9,2-2V25c1.105,0,2-0.895,2-2v-8C16,11.686,13.314,9,10,9L10,9z"
   id="path7397" />
	</g>
</g>
<g
   id="g7407">
	<circle
   style="fill:#a3ffe6;fill-opacity:1"
   cx="30.465"
   cy="4.5"
   r="3"
   id="circle7403" />
	<path
   style="fill:#48ba9f;fill-opacity:1"
   d="M30.465,2c1.379,0,2.5,1.122,2.5,2.5S31.844,7,30.465,7s-2.5-1.122-2.5-2.5S29.086,2,30.465,2    M30.465,1c-1.933,0-3.5,1.567-3.5,3.5s1.567,3.5,3.5,3.5c1.933,0,3.5-1.567,3.5-3.5S32.398,1,30.465,1L30.465,1z"
   id="path7405" />
</g>
<g
   id="g7415">
	<path
   style="fill:#ceffc2;fill-opacity:1"
   d="M33,37.5c-0.827,0-1.5-0.673-1.5-1.5V24.5h-2v11.458c0,0.864-0.659,1.542-1.5,1.542   c-0.827,0-1.5-0.673-1.5-1.5V24.5H26c-0.827,0-1.5-0.673-1.5-1.5v-8c0-3.033,2.468-5.5,5.5-5.5h1c3.032,0,5.5,2.467,5.5,5.5v8   c0,0.827-0.673,1.5-1.5,1.5h-0.5V36C34.5,36.827,33.827,37.5,33,37.5z"
   id="path7409" />
	<g
   id="g7413">
		<path
   style="fill:#87c474;fill-opacity:1"
   d="M31,10c2.757,0,5,2.243,5,5v8c0,0.551-0.449,1-1,1h-1v1v11c0,0.551-0.449,1-1,1s-1-0.449-1-1V25v-1    h-1h-1h-1v1v10.958C29,36.542,28.561,37,28,37c-0.551,0-1-0.449-1-1V25v-1h-1c-0.551,0-1-0.449-1-1v-8c0-2.757,2.243-5,5-5H31     M31,9h-1h0h0c-3.313,0-6,2.686-6,6v0v8c0,1.105,0.895,2,2,2v11c0,1.105,0.895,2,2,2c1.105,0,2-0.895,2-2.042V25h1v11    c0,1.1,0.9,2,2,2s2-0.9,2-2V25c1.105,0,2-0.895,2-2v-8C37,11.686,34.314,9,31,9L31,9z"
   id="path7411" />
	</g>
</g>
<path
   style="fill:#C2E8FF;"
   d="M16,21v-6c0-0.702-0.127-1.374-0.349-2H11H9v2v4v2h2H16z"
   id="path7417" />
<path
   style="fill:#C2E8FF;"
   d="M30.228,15.421l-5.075-3.947C24.431,12.464,24,13.68,24,15v0v8c0,0.134,0.014,0.265,0.039,0.392  l6.188-4.813L32.258,17L30.228,15.421z"
   id="path7419" />
<g
   id="g7427">
	<g
   id="g7425">
		<polygon
   style="fill:#F78F8F;"
   points="20.5,18.5 11.5,18.5 11.5,15.5 20.5,15.5 20.5,11.022 28.186,17 20.5,22.978   "
   id="polygon7421" />
		<path
   style="fill:#C74343;"
   d="M21,12.045L27.371,17L21,21.955V19v-1h-1h-8v-2h8h1v-1V12.045 M20,10v5h-9v4h9v5l9-7L20,10L20,10z"
   id="path7423" />
	</g>
</g>
</svg>