<?xml version="1.0" encoding="UTF-8" standalone="no"?>
<!-- Generator: Adobe Illustrator 19.0.0, SVG Export Plug-In . SVG Version: 6.00 Build 0)  -->

<svg
   xmlns:dc="http://purl.org/dc/elements/1.1/"
   xmlns:cc="http://creativecommons.org/ns#"
   xmlns:rdf="http://www.w3.org/1999/02/22-rdf-syntax-ns#"
   xmlns:svg="http://www.w3.org/2000/svg"
   xmlns="http://www.w3.org/2000/svg"
   xmlns:sodipodi="http://sodipodi.sourceforge.net/DTD/sodipodi-0.dtd"
   xmlns:inkscape="http://www.inkscape.org/namespaces/inkscape"
   version="1.1"
   id="Layer_1"
   x="0px"
   y="0px"
   viewBox="0 0 500.86899 408.69952"
   xml:space="preserve"
   sodipodi:docname="cooking.svg"
   width="500.86899"
   height="408.69952"
   inkscape:version="0.92.3 (2405546, 2018-03-11)"><metadata
   id="metadata8219"><rdf:RDF><cc:Work
       rdf:about=""><dc:format>image/svg+xml</dc:format><dc:type
         rdf:resource="http://purl.org/dc/dcmitype/StillImage" /><dc:title></dc:title></cc:Work></rdf:RDF></metadata><defs
   id="defs8217" /><sodipodi:namedview
   pagecolor="#ffffff"
   bordercolor="#666666"
   borderopacity="1"
   objecttolerance="10"
   gridtolerance="10"
   guidetolerance="10"
   inkscape:pageopacity="0"
   inkscape:pageshadow="2"
   inkscape:window-width="1600"
   inkscape:window-height="867"
   id="namedview8215"
   showgrid="false"
   fit-margin-top="0"
   fit-margin-left="0"
   fit-margin-right="0"
   fit-margin-bottom="0"
   inkscape:zoom="1.3035889"
   inkscape:cx="250.435"
   inkscape:cy="255.999"
   inkscape:window-x="0"
   inkscape:window-y="33"
   inkscape:window-maximized="1"
   inkscape:current-layer="Layer_1" />



<g
   id="g8794"
   transform="translate(-5.565,-103.29947)"><path
     sodipodi:nodetypes="ssssssscsssccccssccss"
     inkscape:connector-curvature="0"
     d="m 444.92188,155.63477 c -18.412,0 -33.33985,14.9326 -33.33985,33.34961 0,18.419 14.92785,33.35156 33.33985,33.35156 18.40899,0 33.33984,-14.93257 33.33984,-33.35156 0,-18.418 -14.93084,-33.34961 -33.33984,-33.34961 z m -94.45899,33.34765 c -27.619,0 -50.00977,22.39935 -50.00977,50.02735 0,1.88 0.11346,3.73359 0.31446,5.55859 H 50.408203 c -9.207,0 -16.669922,7.46578 -16.669922,16.67578 0,9.21 7.463922,16.67578 16.669922,16.67578 h 5.556641 v 11.11719 H 456.03516 v -11.11719 h 5.55664 c 9.207,0 16.66992,-7.46678 16.66992,-16.67578 0,-9.21 -7.46397,-16.67478 -16.66797,-16.67578 h -61.4375 c 0.202,-1.827 0.31445,-3.67859 0.31445,-5.55859 0,-27.629 -22.38881,-50.02735 -50.00781,-50.02735 z"
     style="fill:#d19b3f"
     id="path8172" /><path
     id="path8174"
     d="m 389.357,233.452 c 0,12.279 -9.951,22.233 -22.226,22.233 -12.275,0 -22.226,-9.954 -22.226,-22.233 0,-12.279 9.951,-22.233 22.226,-22.233 12.275,0 22.226,9.954 22.226,22.233 z m 61.122,-66.7 c -9.206,0 -16.67,7.466 -16.67,16.676 0,9.21 7.464,16.674 16.67,16.674 9.205,0 16.67,-7.466 16.67,-16.674 0,-9.21 -7.465,-16.676 -16.67,-16.676 z"
     style="fill:#e9b84c"
     inkscape:connector-curvature="0" /><path
     id="path8176"
     d="m 5.565,345.218 v 15.718 c 0,19.38 15.761,35.148 35.133,35.148 h 15.265 v 72.669 c 0,23.787 19.455,43.246 43.233,43.246 h 313.608 c 23.779,0 43.232,-19.46 43.232,-43.246 V 396.084 H 471.3 c 19.374,0 35.134,-15.767 35.134,-35.148 v -15.718 c 0,-19.38 -15.762,-35.148 -35.134,-35.148 H 456.036 V 266.802 H 55.964 V 310.07 H 40.698 C 21.326,310.071 5.565,325.838 5.565,345.218 Z M 456.036,373.85 V 332.303 H 471.3 c 7.118,0 12.909,5.793 12.909,12.914 v 15.718 c 0,7.12 -5.791,12.914 -12.909,12.914 H 456.036 Z M 27.792,345.218 c 0,-7.12 5.79,-12.914 12.908,-12.914 h 15.264 v 41.547 H 40.698 c -7.117,0 -12.908,-5.793 -12.908,-12.914 v -15.72 h 0.002 z"
     style="fill:#8c9096"
     inkscape:connector-curvature="0" /><g
     id="g8182">
	<path
   id="path8178"
   d="m 5.565,345.218 v 15.718 c 0,19.38 15.761,35.148 35.133,35.148 h 15.265 v 72.669 c 0,23.787 19.455,43.246 43.233,43.246 h 313.608 c 23.779,0 43.232,-19.46 43.232,-43.246 V 396.084 H 471.3 c 19.374,0 35.134,-15.767 35.134,-35.148 v -15.718 c 0,-19.38 -15.762,-35.148 -35.134,-35.148 H 456.036 V 266.802 H 189.321 V 444.67 c 0,12.279 -9.951,22.233 -22.226,22.233 h -44.453 c -12.276,0 -22.226,-9.954 -22.226,-22.233 V 266.802 H 55.964 V 310.07 H 40.698 C 21.326,310.071 5.565,325.838 5.565,345.218 Z M 456.036,332.305 H 471.3 c 7.118,0 12.909,5.793 12.909,12.914 v 15.718 c 0,7.12 -5.791,12.914 -12.909,12.914 H 456.036 Z M 27.792,345.218 c 0,-7.12 5.79,-12.914 12.908,-12.914 h 15.264 v 41.547 H 40.698 c -7.117,0 -12.908,-5.793 -12.908,-12.914 v -15.72 h 0.002 z"
   style="fill:#4d515a"
   inkscape:connector-curvature="0" />
	<path
   id="path8180"
   d="m 456.979,117.064 c -1.412,-5.975 -7.401,-9.675 -13.371,-8.261 l -144.303,34.129 -2.971,-12.57 C 291.876,111.501 272.91,99.787 254.056,104.247 l -15.289,3.616 c -9.109,2.155 -16.846,7.748 -21.787,15.752 -4.941,8.003 -6.476,17.428 -4.323,26.537 l 2.97,12.57 -144.304,34.132 c -5.974,1.412 -9.67,7.402 -8.258,13.377 1.209,5.114 5.77,8.562 10.805,8.562 0.846,0 1.706,-0.098 2.566,-0.302 l 372.285,-88.05 c 5.974,-1.414 9.67,-7.402 8.258,-13.377 z m -222.692,27.974 c -0.788,-3.33 -0.218,-6.79 1.604,-9.739 1.822,-2.951 4.659,-5.009 7.991,-5.797 l 15.29,-3.616 c 6.924,-1.638 13.894,2.666 15.534,9.596 l 2.971,12.568 -40.418,9.56 z"
   style="fill:#4d515a"
   inkscape:connector-curvature="0" />
</g></g>
<g
   id="g8184"
   transform="translate(-5.565,-103.29947)">
</g>
<g
   id="g8186"
   transform="translate(-5.565,-103.29947)">
</g>
<g
   id="g8188"
   transform="translate(-5.565,-103.29947)">
</g>
<g
   id="g8190"
   transform="translate(-5.565,-103.29947)">
</g>
<g
   id="g8192"
   transform="translate(-5.565,-103.29947)">
</g>
<g
   id="g8194"
   transform="translate(-5.565,-103.29947)">
</g>
<g
   id="g8196"
   transform="translate(-5.565,-103.29947)">
</g>
<g
   id="g8198"
   transform="translate(-5.565,-103.29947)">
</g>
<g
   id="g8200"
   transform="translate(-5.565,-103.29947)">
</g>
<g
   id="g8202"
   transform="translate(-5.565,-103.29947)">
</g>
<g
   id="g8204"
   transform="translate(-5.565,-103.29947)">
</g>
<g
   id="g8206"
   transform="translate(-5.565,-103.29947)">
</g>
<g
   id="g8208"
   transform="translate(-5.565,-103.29947)">
</g>
<g
   id="g8210"
   transform="translate(-5.565,-103.29947)">
</g>
<g
   id="g8212"
   transform="translate(-5.565,-103.29947)">
</g>
</svg>