<?xml version="1.0" encoding="utf-8"?>
<!-- Generator: Adobe Illustrator 19.2.0, SVG Export Plug-In . SVG Version: 6.00 Build 0)  -->
<svg version="1.1" id="roundwindow" xmlns="http://www.w3.org/2000/svg" xmlns:xlink="http://www.w3.org/1999/xlink" x="0px"
	 y="0px" viewBox="0 0 216 216" enable-background="new 0 0 216 216" xml:space="preserve">
<g>
	<path fill="#DBEEF7" d="M184,108V76.0116C184,38.5096,153.5019,8,116.0155,8H112v100H184z"/>
	<path fill="#DBEEF7" d="M104,8h-4.0157C62.4979,8,32,38.5096,32,76.0116V108h72V8z"/>
	<path fill="#DBEEF7" d="M32,132v52h20v-20h11.0351c-5.7092-7.078-11.6524-17.0392-5.8631-22.828
		c5.2283-5.2344,14.9607-2.4044,21.4587,2.9216c5.6288,4.6152,7.4296,10.0276,4.6973,14.1252
		c-1.6133,2.418-2.4413,4.4044-2.8709,5.7812H96v20h88v-52H32z"/>
	<path fill="#3BABB7" d="M32,184v-52h-4v-24h4V76.0116C32,38.5096,62.4979,8,99.9843,8H104h8h4.0155
		C153.5019,8,184,38.5096,184,76.0116V108h4v24h-4v52h8V76.0116C192,34.0996,157.9139,0,116.0155,0H99.9843
		C58.0859,0,24,34.0996,24,76.0116V184H32z"/>
	<polygon fill="#89714D" points="188,132 188,108 184,108 112,108 112,8 104,8 104,108 32,108 28,108 28,132 32,132 184,132 	"/>
	<polygon fill="#E1AD99" points="192,184 184,184 96,184 52,184 32,184 24,184 0,184 8,216 208,216 216,184 	"/>
	<path fill="#89714D" d="M80.4571,164c-0.4104,1.3144-0.4571,2.0724-0.4592,2.088c-0.0956,2.1736-1.7872,3.9764-4.088,3.8652
		c-0.1348-0.004-0.2692-0.0136-0.4019-0.0292c-0.1781,0.324-0.4045,0.6288-0.68,0.904C74.0467,171.6092,73.0235,172,72,172
		c-1.0237,0-2.0469-0.3908-2.828-1.172c-1.4337-1.4336-3.7657-3.8884-6.1369-6.828H52v20h44v-20H80.4571z"/>
	<path fill="#9AB040" d="M72,172c1.0235,0,2.0467-0.3908,2.828-1.172c0.2755-0.2752,0.5019-0.58,0.68-0.904
		c0.1327,0.0156,0.2671,0.0252,0.4019,0.0292c2.3008,0.1112,3.9924-1.6916,4.088-3.8652c0.0021-0.0156,0.0488-0.7736,0.4592-2.088
		c0.4296-1.3768,1.2576-3.3632,2.8709-5.7812c2.7323-4.0976,0.9315-9.51-4.6973-14.1252c-6.498-5.326-16.2304-8.156-21.4587-2.9216
		c-5.7893,5.7888,0.1539,15.75,5.8631,22.828c2.3712,2.9396,4.7032,5.3944,6.1369,6.828C69.9531,171.6092,70.9763,172,72,172z"/>
</g>
</svg>
