<?xml version="1.0" encoding="UTF-8" standalone="no"?>
<svg
   xmlns:dc="http://purl.org/dc/elements/1.1/"
   xmlns:cc="http://creativecommons.org/ns#"
   xmlns:rdf="http://www.w3.org/1999/02/22-rdf-syntax-ns#"
   xmlns:svg="http://www.w3.org/2000/svg"
   xmlns="http://www.w3.org/2000/svg"
   xmlns:sodipodi="http://sodipodi.sourceforge.net/DTD/sodipodi-0.dtd"
   xmlns:inkscape="http://www.inkscape.org/namespaces/inkscape"
   height="512pt"
   viewBox="0 -9 512 512"
   width="512pt"
   version="1.1"
   id="svg1656"
   sodipodi:docname="loop.svg"
   inkscape:version="0.92.3 (2405546, 2018-03-11)">
  <metadata
     id="metadata1662">
    <rdf:RDF>
      <cc:Work
         rdf:about="">
        <dc:format>image/svg+xml</dc:format>
        <dc:type
           rdf:resource="http://purl.org/dc/dcmitype/StillImage" />
      </cc:Work>
    </rdf:RDF>
  </metadata>
  <defs
     id="defs1660" />
  <sodipodi:namedview
     pagecolor="#ffffff"
     bordercolor="#666666"
     borderopacity="1"
     objecttolerance="10"
     gridtolerance="10"
     guidetolerance="10"
     inkscape:pageopacity="0"
     inkscape:pageshadow="2"
     inkscape:window-width="1600"
     inkscape:window-height="867"
     id="namedview1658"
     showgrid="false"
     inkscape:zoom="1.03125"
     inkscape:cx="338.42424"
     inkscape:cy="341.33333"
     inkscape:window-x="0"
     inkscape:window-y="33"
     inkscape:window-maximized="1"
     inkscape:current-layer="svg1656" />
  <path
     d="m32 326.625h-32v-128c0-79.410156 64.609375-144 144-144h128c8.816406 0 16-7.167969 16-16v-38.625l135.695312 135.695312-135.695312 113.089844v-34.160156c0-8.832031-7.183594-16-16-16h-112c-70.574219 0-128 57.421875-128 128zm0 0"
     fill="#81c784"
     id="path1642"
     style="fill:#1c9c1f;fill-opacity:1" />
  <path
     d="m224 493.246094-135.695312-135.695313 135.695312-113.085937v34.160156c0 8.832031 7.183594 16 16 16h112c70.574219 0 128-57.425781 128-128h32v128c0 79.40625-64.609375 144-144 144h-128c-8.816406 0-16 7.167969-16 16zm0 0"
     fill="#fdd835"
     id="path1644"
     style="fill:#e2b802;fill-opacity:1" />
  <path
     d="m0 358.625h32v32h-32zm0 0"
     fill="#43a047"
     id="path1646" />
  <path
     d="m0 422.625h32v32h-32zm0 0"
     fill="#43a047"
     id="path1648" />
  <g
     fill="#fbc02d"
     id="g1654">
    <path
       d="m480 38.625h32v32h-32zm0 0"
       id="path1650" />
    <path
       d="m480 102.625h32v32h-32zm0 0"
       id="path1652" />
  </g>
</svg>
