<?xml version="1.0" encoding="iso-8859-1"?>
<!-- Generator: Adobe Illustrator 19.0.0, SVG Export Plug-In . SVG Version: 6.00 Build 0)  -->
<svg version="1.1" id="Layer_1" xmlns="http://www.w3.org/2000/svg" xmlns:xlink="http://www.w3.org/1999/xlink" x="0px" y="0px"
	 viewBox="0 0 512.434 512.434" style="enable-background:new 0 0 512.434 512.434;" xml:space="preserve">
<path style="fill:#FFDD09;" d="M113.031,49.898L113.031,49.898c20.827,13.017,42.522,35.58,58.142,62.481l169.22,304.597
	c19.092,31.241,39.919,59.878,63.349,86.78c-13.017-32.108-29.505-65.085-48.597-95.458L186.793,102.834
	c-16.488-26.902-26.902-55.539-28.637-80.705L113.031,49.898z"/>
<path style="fill:#FFFFFF;" d="M172.041,112.38c-16.488-26.902-38.183-49.464-59.01-62.481L90.468,63.783
	c30.373,6.942,57.275,26.902,73.763,53.803l169.22,304.597c19.092,31.241,42.522,59.01,70.292,82.441
	c-22.563-26.034-44.258-55.539-63.349-86.78L172.041,112.38z"/>
<path style="fill:#FD9808;" d="M157.288,22.997c1.736,25.166,12.149,53.803,28.637,80.705l169.22,304.597
	c19.092,31.241,35.58,63.349,48.597,95.458c-7.81-35.58-21.695-69.424-40.786-100.664L193.736,98.495
	c-16.488-26.902-21.695-59.01-13.885-89.383L157.288,22.997z"/>
<path style="fill:#FFDD09;" d="M356.014,20.393L356.014,20.393c-1.736,25.166-11.281,53.803-26.902,81.573L154.685,397.885
	c-18.224,32.108-33.844,64.217-45.993,97.193c22.563-26.902,42.522-56.407,60.746-88.515l174.427-296.786
	c15.62-26.902,36.447-50.332,57.275-64.217l0,0L356.014,20.393z"/>
<path style="fill:#FFFFFF;" d="M329.112,101.966c15.62-26.902,25.166-56.407,26.902-81.573L333.451,7.376
	c7.81,30.373,3.471,62.481-12.149,90.251L147.742,393.546c-18.224,32.108-31.241,65.953-39.051,101.532
	c12.149-32.976,27.769-65.085,45.993-97.193L329.112,101.966z"/>
<path style="fill:#FD9808;" d="M400.271,45.559c-20.827,13.885-41.654,36.447-57.275,64.217L169.437,405.695
	c-18.224,32.108-39.051,61.614-61.614,88.515c26.902-24.298,50.332-52.068,68.556-84.176l174.427-295.919
	c15.62-26.902,41.654-46.861,72.027-54.671L400.271,45.559z"/>
<path d="M105.22,512.434c-1.736,0-2.603,0-4.339-0.868c-3.471-1.736-5.207-6.075-4.339-9.546
	c8.678-39.051,23.431-76.366,43.39-111.078l168.353-290.712c17.356-30.373,23.431-61.614,17.356-89.383
	c-0.868-3.471,0.868-6.942,3.471-8.678c2.603-1.736,6.942-2.603,9.546,0l86.78,52.068c2.603,1.736,4.339,5.207,4.339,8.678
	c0,3.471-2.603,6.075-6.075,6.942c-28.637,8.678-54.671,29.505-70.292,56.407L185.925,416.976
	c-19.959,34.712-45.125,65.953-73.763,92.854C109.559,511.566,107.824,512.434,105.22,512.434z M345.6,25.6
	c1.736,26.902-6.075,55.539-21.695,83.308L155.553,399.62c-13.885,23.431-24.298,48.597-32.976,74.63
	c18.224-19.959,34.712-41.654,47.729-65.953l168.353-290.712c14.753-26.034,36.447-45.993,62.481-58.142L345.6,25.6z"/>
<path d="M234.522,253.831c-3.471,0-6.075-1.736-7.81-4.339l-71.159-123.227l0,0c-16.488-29.505-39.051-48.597-66.82-56.407
	c-3.471-0.868-5.207-4.339-6.075-7.81c0-3.471,0.868-6.942,4.339-8.678l86.78-52.068c2.603-1.736,6.942-1.736,9.546,0
	s4.339,5.207,3.471,8.678c-6.942,29.505-1.736,61.614,13.885,89.383l61.614,105.871c1.736,2.603,1.736,6.075,0,8.678l-19.959,34.712
	C240.597,252.095,237.993,253.831,234.522,253.831z M171.173,117.586l64.217,110.21l10.414-17.356l-59.01-101.532
	c-14.753-26.034-21.695-54.671-19.092-82.441l-56.407,32.976C135.593,71.593,155.553,90.685,171.173,117.586L171.173,117.586z"/>
<path d="M403.742,512.434c-1.736,0-4.339-0.868-6.075-2.603c-28.637-26.902-53.803-58.142-73.763-92.854l-76.366-132.773
	c-1.736-2.603-1.736-6.075,0-8.678l19.959-34.712c3.471-5.207,12.149-5.207,14.753,0l86.78,150.129
	c19.959,34.712,34.712,72.027,43.39,111.078c0.868,3.471-0.868,7.81-4.339,9.546C407.214,512.434,405.478,512.434,403.742,512.434z
	 M264.895,279.864l73.763,128.434c13.885,23.431,29.505,45.993,47.729,65.953c-8.678-26.034-19.092-50.332-32.976-74.63
	l-78.97-137.112L264.895,279.864z"/>
<g>
</g>
<g>
</g>
<g>
</g>
<g>
</g>
<g>
</g>
<g>
</g>
<g>
</g>
<g>
</g>
<g>
</g>
<g>
</g>
<g>
</g>
<g>
</g>
<g>
</g>
<g>
</g>
<g>
</g>
</svg>
