<?xml version="1.0" encoding="iso-8859-1"?>
<!-- Generator: Adobe Illustrator 19.0.0, SVG Export Plug-In . SVG Version: 6.00 Build 0)  -->
<svg version="1.1" id="Layer_1" xmlns="http://www.w3.org/2000/svg" xmlns:xlink="http://www.w3.org/1999/xlink" x="0px" y="0px"
	 viewBox="0 0 504.119 504.119" style="enable-background:new 0 0 504.119 504.119;" xml:space="preserve">
<g>
	<path style="fill:#990000;" d="M148.739,279.556c24.749,17.369,8.972,24.214-64.347,93.57c-7.176,6.798-25.001,0.26-31.98-6.711
		c-6.987-6.987-13.296-13.942-6.325-20.921C53.082,338.515,140.673,273.892,148.739,279.556z"/>
	<path style="fill:#990000;" d="M251.816,382.618c-17.369-24.726-24.214-8.94-93.562,64.37c-6.79,7.168-0.26,25.001,6.711,31.972
		c6.979,6.987,13.95,13.296,20.929,6.309C192.881,478.299,257.488,390.715,251.816,382.618z"/>
</g>
<path style="fill:#8EB2B2;" d="M285.34,352.512v-46.907h24.474v-37.108h24.466v-37.124h24.474v-37.108h24.482v-37.108h24.474
	v-37.124h24.474V82.924h24.481V45.816h20.173c0.378-11.658-3.545-22.843-12.768-32.075c-18.322-18.322-48.026-18.322-66.339,0
	L142.311,269.174c-18.314,18.322-3.97,33.674,14.336,51.988c18.322,18.322,84.346,89.387,102.644,71.058l26.073-39.708H285.34z"/>
<path style="fill:#76999B;" d="M397.752,13.741L142.311,269.174c-6.727,6.735-9.027,13.06-8.365,19.275l33.501,33.493L469.29,20.114
	c-1.536-2.198-3.19-4.356-5.207-6.372C445.762-4.58,416.066-4.58,397.752,13.741z"/>
<path style="fill:#BF0C0C;" d="M263.427,382.066c3.332,3.356,3.332,8.751,0.008,12.075l-13.769,13.769
	c-3.332,3.356-8.735,3.356-12.083,0L123.47,293.774c-3.34-3.324-3.348-8.736,0-12.06l13.769-13.769c3.332-3.34,8.736-3.324,12.06,0
	L263.427,382.066z"/>
<path style="fill:#EF0F0F;" d="M137.231,267.945l-13.769,13.769c-3.348,3.324-3.34,8.736,0,12.06l35.564,35.572
	c3.332,3.356,8.735,3.356,12.067,0l13.777-13.753c3.324-3.34,3.324-8.736-0.008-12.091l-35.572-35.556
	C145.974,264.621,140.563,264.606,137.231,267.945z"/>
<circle style="fill:#EBF0F2;" cx="417.326" cy="40.058" r="10.886"/>
<path style="fill:#BF0C0C;" d="M200.467,467.098c10.027,10.012,3.23,19.495-6.798,29.507l0,0c-10.012,10.027-26.293,10.012-36.313,0
	L34.776,374.016c-10.027-10.027-10.019-26.293,0-36.305l0,0c10.012-10.027,19.48-16.833,29.507-6.814L200.467,467.098z"/>
<path style="fill:#EF0F0F;" d="M34.776,337.711c-10.019,10.012-10.027,26.277,0,36.305l32.035,32.043
	c10.012,10.012,26.301,10.027,36.32,0c10.019-10.012,16.825-19.495,6.798-29.507l-45.647-45.655
	C54.247,320.878,44.787,327.684,34.776,337.711z"/>
<g>
</g>
<g>
</g>
<g>
</g>
<g>
</g>
<g>
</g>
<g>
</g>
<g>
</g>
<g>
</g>
<g>
</g>
<g>
</g>
<g>
</g>
<g>
</g>
<g>
</g>
<g>
</g>
<g>
</g>
</svg>
