<?xml version="1.0" encoding="iso-8859-1"?>
<!-- Generator: Adobe Illustrator 19.0.0, SVG Export Plug-In . SVG Version: 6.00 Build 0)  -->
<svg version="1.1" id="Layer_1" xmlns="http://www.w3.org/2000/svg" xmlns:xlink="http://www.w3.org/1999/xlink" x="0px" y="0px"
	 viewBox="0 0 511.999 511.999" style="enable-background:new 0 0 511.999 511.999;" xml:space="preserve">
<circle style="fill:#F7B239;" cx="253.706" cy="256.372" r="253.706"/>
<path style="fill:#E09B2D;" d="M120.409,389.661c-91.265-91.267-98.457-234.766-21.58-334.269
	c-8.516,6.579-16.709,13.77-24.521,21.582c-99.076,99.076-99.076,259.712,0,358.788s259.712,99.076,358.788,0
	c7.81-7.81,15.002-16.005,21.582-24.521C355.175,488.118,211.675,480.926,120.409,389.661z"/>
<g>
	<path style="fill:#4D4D4D;" d="M360.734,297.91C360.732,297.91,360.734,297.91,360.734,297.91
		c-23.245,0-44.24-11.914-56.163-31.868c-2.663-4.458-1.209-10.232,3.25-12.895c4.458-2.662,10.232-1.207,12.895,3.25
		c8.495,14.218,23.454,22.706,40.016,22.708c16.564,0,31.524-8.489,40.019-22.708c2.664-4.46,8.442-5.912,12.895-3.25
		c4.459,2.664,5.913,8.437,3.25,12.895C404.974,285.995,383.977,297.91,360.734,297.91z"/>
	<path style="fill:#4D4D4D;" d="M146.671,297.91c-23.245,0-44.24-11.914-56.164-31.868c-2.663-4.458-1.209-10.232,3.25-12.895
		c4.461-2.662,10.234-1.207,12.895,3.25c8.494,14.218,23.455,22.708,40.019,22.708c16.563,0,31.522-8.489,40.016-22.708
		c2.664-4.457,8.437-5.913,12.895-3.25c4.459,2.664,5.913,8.437,3.25,12.895C190.911,285.995,169.916,297.909,146.671,297.91z"/>
</g>
<path style="fill:#A81004;" d="M375.38,382.36c-0.128,0.392-0.265,0.795-0.402,1.187c-0.098,0.275-0.197,0.549-0.295,0.825
	c-4.122,11.462-12.67,20.226-23.113,24.869l-0.069-0.147c-0.423-0.785-0.874-1.561-1.325-2.326
	c-11.531-19.431-32.72-32.445-56.97-32.445c-14.81,0-28.47,4.858-39.501,13.082c-11.031-8.224-24.711-13.082-39.531-13.082
	c-24.221,0-45.429,13.013-56.951,32.445c-0.451,0.766-0.903,1.541-1.325,2.326l-0.069,0.147
	c-10.442-4.642-18.99-13.406-23.113-24.869c-0.098-0.275-0.197-0.549-0.295-0.825c-0.138-0.392-0.275-0.785-0.402-1.177
	c4.524-13.808,15.908-25.105,31.316-28.647c59.463-13.651,121.262-13.651,180.725,0C359.462,357.265,370.855,368.552,375.38,382.36z
	"/>
<path style="fill:#FFFFFF;" d="M344.062,326.793c24.82,5.692,39.216,31.542,31.316,55.567
	c-4.524-13.808-15.918-25.095-31.316-28.637c-59.463-13.651-121.262-13.651-180.725,0c-15.408,3.543-26.792,14.839-31.316,28.647
	c-7.89-24.034,6.487-49.875,31.316-55.577C222.801,313.141,284.6,313.141,344.062,326.793z"/>
<path style="fill:#F95428;" d="M350.177,406.767c0.451,0.766,0.903,1.541,1.325,2.326l0.069,0.147v0.01
	c-8.254,3.67-17.705,4.78-27.097,2.63c-46.567-10.677-94.97-10.677-141.548,0c-9.392,2.149-18.843,1.041-27.097-2.63v-0.01
	l0.069-0.147c0.423-0.785,0.874-1.561,1.325-2.326c11.521-19.431,32.729-32.445,56.951-32.445c14.819,0,28.5,4.858,39.531,13.082
	c11.031-8.224,24.692-13.082,39.501-13.082C317.457,374.322,338.646,387.335,350.177,406.767z"/>
<g>
	<path style="fill:#E54728;" d="M358.472,194.341h-52.549c-3.65,0-6.971-2.113-8.517-5.419c-1.547-3.306-1.041-7.209,1.298-10.01
		l39.67-47.524h-32.451c-5.194,0-9.404-4.21-9.404-9.403c0-5.193,4.209-9.403,9.404-9.403h52.549c3.65,0,6.971,2.113,8.517,5.419
		c1.547,3.306,1.041,7.209-1.298,10.01l-39.67,47.524h32.451c5.194,0,9.404,4.21,9.404,9.403S363.667,194.341,358.472,194.341z"/>
	<path style="fill:#E54728;" d="M502.595,156.578h-113.4c-3.65,0-6.971-2.113-8.517-5.419c-1.547-3.306-1.041-7.209,1.298-10.01
		L482.497,20.728h-93.301c-5.194,0-9.403-4.21-9.403-9.403s4.209-9.403,9.403-9.403h113.4c3.65,0,6.971,2.113,8.517,5.419
		c1.547,3.306,1.041,7.209-1.298,10.01L409.294,137.771h93.301c5.194,0,9.404,4.21,9.404,9.404
		C511.999,152.368,507.79,156.578,502.595,156.578z"/>
</g>
<g>
</g>
<g>
</g>
<g>
</g>
<g>
</g>
<g>
</g>
<g>
</g>
<g>
</g>
<g>
</g>
<g>
</g>
<g>
</g>
<g>
</g>
<g>
</g>
<g>
</g>
<g>
</g>
<g>
</g>
</svg>
